<svg xmlns="http://www.w3.org/2000/svg" fill-rule="evenodd" stroke-linecap="round" stroke-linejoin="round" stroke-miterlimit="1.5" clip-rule="evenodd" viewBox="0 0 1300 1300"><path fill="none" d="M0 0h1300v1300H0z"/><path fill="#c8965c" stroke="#000" d="m141 759 286.003-25.093L512 610l303 16 69 95 285 40-17-136-104-194-81-234 97-116-61-23-116 88-160-48-55 3-7-30-244 70-117-88-71 29 102 160-168 349-31 104zm124 176 88-77 79-28 33 129 118 112h148l76-76 82-192 151 120-84 131-299 141-325-148z"/><path fill="#ead3a9" fill-rule="nonzero" d="M491 561c1.289 3.868.138 6.116-1.25 9.75l-.66 1.805a152 152 0 0 1-3.625 8.929c-9.595 22.291-8.728 55.637-.215 78.141 2.51 5.422 5.878 9.862 9.75 14.375l1.902 2.508c11.156 13.254 28.058 18.054 44.536 19.867 21.927 2.636 41.59 7.759 58.562 22.625l1.412 1.229C623.786 740.127 635.287 771.575 642 800l.544 2.25c.58 3.497.637 6.894.659 10.434l.021 2.288c.018 2.488.024 4.977.026 7.466l.004 2.603c-.006 18.363-1.291 36.525-3.048 54.794q-.299 3.15-.578 6.301c-1.096 12.268-2.349 24.488-4.566 36.614l-.441 2.471C632.9 933.903 629.784 942.032 623 948c-2.595 1.659-5.274 2.848-8.125 4l-2.381 1.001A403 403 0 0 1 605 956l-2.37.938C583.102 964.556 561.995 969.993 541 971l-3.05.149c-26.872 1.103-52.166-3.329-73.075-21.399C449.782 935.563 436.052 913.811 433 893c7.716-6.642 15.661-12.742 23.993-18.586 3.855-2.716 7.681-5.471 11.507-8.226l2.284-1.635c7.578-4.895 7.578-4.895 13.216-11.553.121-1.754.121-1.754.062-3.625L484 846c-16.511-1.011-37.927 20.351-49.852 30.59C430.162 880 430.162 880 428 880c-6.006-20.17-6.006-20.17-7.938-29.5l-.387-1.791c-.693-3.556-.466-6.206.325-9.709 9.987-4.91 19.971-9.793 30.246-14.074l1.795-.749a844 844 0 0 1 8.703-3.559l3.182-1.306 2.825-1.136c2.299-1.202 3.208-1.832 4.249-4.176.167-3.125.167-3.125 0-6-2.724-2.724-4.578-4.293-8.504-4.391-5.609.159-10.361 2.414-15.434 4.641l-3.161 1.356C432.095 814.702 420.506 820.263 409 826l-2.965 1.477C384.996 838.026 364.938 850.017 346 864l-2.113 1.556c-20.298 14.981-39.699 31.067-57.546 48.918a1039 1039 0 0 1-4.218 4.178c-5.419 5.388-10.412 10.944-15.148 16.942-1.876 2.286-3.848 4.355-5.975 6.406-3-1-3-1-3.936-2.484l-.783-1.911-.882-2.131-.899-2.286-.932-2.313A111 111 0 0 1 248 912c-.527 9.068.629 17.766 1.933 26.725.392 2.755.744 5.511 1.067 8.275l.283 2.173c.449 6.05-2.259 9.826-5.658 14.639l-1.539 2.272a416 416 0 0 1-2.849 4.142A230 230 0 0 0 238 975h-2c-10.053-20.236-18.645-40.703-25.875-62.125l-1.12-3.302C206.541 902.12 204.64 894.669 203 887c-.26 7.249.503 14.209 1.562 21.375l.256 1.745c2.31 15.501 5.49 31.864 11.744 46.27C217 958 217 958 216 961c-12.303-26.717-22.485-53.069-29.631-81.636l-.459-1.829-.444-1.774c-.481-1.817-1.029-3.606-1.581-5.403-.787-2.987-1.07-5.299-.885-8.358 28.245-15.232 57.269-28.683 87.183-40.295q2.596-1.01 5.189-2.022c40.873-15.875 82.783-28.215 125.932-36.011 3.717-.672 7.427-1.373 11.137-2.078 21.324-4.034 21.324-4.034 31.055-4.942 3.215-.837 4.513-2.017 6.504-4.652.478-2.125.478-2.125.25-4.25l-.109-2.141L450 764c-10.18-6.41-31.148 1.106-47 1-1.583-.011-3.12.537-4.68.805a718 718 0 0 0-31.07 6.133l-3.184.692c-48.415 10.824-94.931 29.177-139.149 51.408a2137 2137 0 0 1-6.06 3.026c-7.387 3.677-14.75 7.391-22.045 11.248l-2.4 1.26c-3.168 1.671-6.283 3.349-9.338 5.221C183 846 183 846 181 846q-.48-3.03-.938-6.062l-.527-3.411c-1.555-12.016-1.697-24.094-1.665-36.192q.005-3.738-.007-7.476l.004-4.804-.006-2.232c.017-3.756.307-7.143 1.139-10.823q.187-2.048.281-4.102l.114-2.234.21-4.602.114-2.226.092-2.014C180 758 180 758 181 755c5.503-2.752 11.772-3.611 17.75-4.875l1.874-.399c19.815-4.199 39.763-7.035 59.882-9.32 3.767-.433 7.529-.904 11.291-1.375 7.994-.996 15.995-1.916 24.003-2.79q2.15-.236 4.303-.479c37.567-4.243 75.847-3.72 113.596-2.422l2.504.086c3.602.129 7.201.283 10.8.481l1.86.087c1.575.073 3.149.163 4.723.255 2.459-.048 2.459-.048 4.221-1.574 1.909-2.68 1.705-4.478 1.193-7.675-2.263-3.259-3.702-4.655-7.567-5.682-3.079-.482-6.143-.833-9.245-1.13l-3.256-.366A555 555 0 0 0 411 717c.408-12.33 3.173-24.025 6-36l.594-2.591c2.869-12.41 7.071-23.851 12.406-35.409l.949-2.081c7.73-16.773 17.554-32.307 30.051-45.919l1.403-1.533a1343 1343 0 0 1 5.611-6.088 189 189 0 0 0 8.548-9.941c4.583-5.696 9.471-11.077 14.438-16.438"/><path fill="#c8965c" fill-rule="nonzero" d="M181 755c9.686-14.811 242.315-34.618 230-22v32c.66.33-223.007 78.037-225.925 79.793C183.018 846.03 183 846 181 846c-7.681 3.398-7.531-83.192 0-91m230 24c.055.701 1.111 4.402 1.168 5.124.253 3.188 4.152 37.536 4.832 37.876l-1.639.788c-34.069 16.47-143.65 106.808-148.386 112.806-1.876 2.286-3.848 4.355-5.975 6.406-3-1-3-1-3.936-2.484-.387-.946-7.744-20.993-9.064-27.516-.527 9.068 3.14 36.075 3.283 37.173.449 6.05-12.222 24.222-13.283 25.827h-2c-10.053-20.236-31.36-80.331-33-88-.26 7.249 7.308 54.984 13.562 69.39C217 958 217 958 216 961c-16.751-20.583-37.019-90.654-33-99 28.245-15.232 57.269-28.683 87.183-40.295q2.596-1.01 5.189-2.022C349.455 792.869 339.016 794.341 411 779"/><path fill="#784f1c" fill-rule="nonzero" d="m282.375 43.75 2.961-.023c27.797.073 52.326 15.619 72.117 33.937a147 147 0 0 0 4.166 3.71c7.463 6.349 14.227 13.411 21.109 20.374 6.241 6.309 12.443 12.57 19.272 18.252l1.45 1.229c4.593 3.862 8.995 7.432 14.55 9.771l1.555-1.258q3.343-2.687 6.703-5.351a599 599 0 0 0 3.644-2.934C456.1 100.207 492.849 75.956 527 70c-2.554 3.368-4.992 5.982-8.375 8.562C507.62 87.172 497.226 96.486 487 106l1.423-.667c21.429-9.988 43.096-18.357 65.902-24.592 2.43-.673 4.846-1.379 7.261-2.104C597.354 68.016 637.644 62.588 675 62l3.243-.062c14.679-.259 29.29.038 43.944.937l2.053.119q2.87.173 5.74.373l3.31.222c2.547.386 3.782.763 5.71 2.411l-1.503.348C715.925 71.4 695.993 78.433 676 88l3.159-.212c13.488-.841 26.964-.976 40.474-.973q3.737 0 7.473-.021c20.294-.109 40.376.332 60.21 5.104 3.022.718 6.045 1.39 9.086 2.016 27.68 5.992 57.306 17.225 80.715 33.238 2.593 1.662 4.988 2.828 7.883 3.848 6.472-3.986 12.049-8.545 17.598-13.726a122 122 0 0 1 3.034-2.661C912.47 108.796 918.695 102.38 925 96c13.729-13.892 13.729-13.892 21-20q1.458-1.275 2.914-2.555C972.613 52.999 998.511 42.151 1030 44c15.625 1.906 27.164 10.173 38 21l1.926 1.855C1080.746 78.14 1087.835 93.428 1093 108l.808 2.269c16.569 47.428 14.802 96.785-6.814 142.204-5.318 10.848-11.582 20.384-19.846 29.226-1.934 2.071-3.763 4.195-5.585 6.363-11.664 13.262-27.185 23.363-43.563 29.938h-2a853 853 0 0 0 4.355 13.978c.544 1.707 1.068 3.42 1.586 5.135l.872 2.575.707 2.199c5.178 7.391 16.696 10.531 24.736 14.11q2.623 1.173 5.24 2.358l3.131 1.396C1059 361 1059 361 1060 363l-30 2c18.575 43.276 40.043 82.161 67.75 120.312a534 534 0 0 1 14.928 21.668c1.426 2.179 2.864 4.349 4.302 6.52 15.362 23.287 29.825 47.312 42.009 72.425a822 822 0 0 0 3.191 6.454c8.106 16.472 14.406 33.59 19.82 51.121l.881 2.839c1.568 5.236 2.61 10.218 3.119 15.661-1.967-1.967-2.652-3.186-3.742-5.684-8.375-18.69-19.428-34.946-31.726-51.263-2.226-2.983-4.387-6.011-6.532-9.053l1.363 2.332C1171.497 644.437 1189.716 707.895 1188 761l1.763.483c6.995 1.996 13.616 4.596 20.3 7.455l1.683.715c18.097 7.707 35.713 16.459 53.254 25.347-4.064 1.355-6.693-.048-10.543-1.465l-2.28-.814q-2.426-.867-4.847-1.745c-3.368-1.222-6.742-2.423-10.116-3.625l-5.061-1.807q-10.35-3.695-20.778-7.169l-2.751-.926c-6.151-2.042-12.357-3.799-18.624-5.449l-.044 1.575c-.997 32.492-4.727 65.133-14.947 96.117l-.884 2.757-.805 2.386c-.407 2.752.158 3.872 1.68 6.165a81 81 0 0 0 5.5 4.25q1.642 1.197 3.281 2.398l1.653 1.203c7.82 5.738 14.962 12.143 22.047 18.743a421 421 0 0 0 4.421 4.027c5.923 5.34 11.679 10.832 17.348 16.441l2.027 1.988 1.864 1.86 1.672 1.661C1236 935 1236 935 1236 937c-3.576-1.586-6.464-3.83-9.5-6.25-12.441-9.718-25.573-18.519-38.673-27.316q-1.556-1.045-3.109-2.094c-5.731-3.869-11.415-7.475-17.718-10.34l-.357 2.169c-.67 2.948-1.661 5.39-2.928 8.132l-1.358 2.959-1.42 3.052-1.431 3.112A2359 2359 0 0 1 1156 918h-1a267 267 0 0 1 1.786-14.136c.973-6.343 1.409-12.437 1.214-18.864l-11-7-.246 3.113c-.825 6.539-2.898 12.791-4.817 19.075l-.613 2.018C1128.36 944.734 1107.787 984.231 1080 1019l-1.499 1.893c-7.061 8.906-14.394 17.431-22.19 25.699-1.836 1.972-3.6 4.004-5.374 6.033-4.655 5.194-9.576 10.125-14.5 15.063l-2.435 2.449A271 271 0 0 1 1019 1084a1459 1459 0 0 0-3.465 3.07c-9.182 8.103-18.721 15.612-28.535 22.93l-1.921 1.445c-18.128 13.625-37.137 25.76-57.079 36.555l-2-1 1.879-1.477c12.679-10.15 24.486-21.241 35.121-33.523l2.219-2.559c14.646-17.432 26.594-36.666 37.781-56.441l-1.258 1.879c-8.373 12.035-18.809 22.251-29.117 32.621l-1.943 1.958c-4.397 4.381-8.972 8.501-13.682 12.542l-3.063 2.668c-26.884 23.166-56.999 42.107-87.937 59.332l-2.742 1.529c-32.794 18.212-66.459 33.909-101.321 47.721l-2.174.864q-3.052 1.208-6.111 2.402l-1.82.72c-3.252 1.26-6.39 2.195-9.832 2.764a66 66 0 0 1 7.152-4.918c11.965-7.145 22.937-15.43 33.848-24.082l1.912-1.505c8.695-6.913 16.53-14.738 24.401-22.557l1.553-1.538c6.855-6.8 13.159-13.811 19.134-21.4q1.998-2.502 4-5l-2.402 1.914c-11.216 8.692-23.429 15.441-35.878 22.158q-2.593 1.4-5.183 2.805c-10.293 5.578-20.605 11.121-31.021 16.467-29.689 15.242-60.169 31.728-85.516 53.656l-2.613 2.242c-7.395 6.486-14.212 13.348-19.387 21.758a130 130 0 0 1-8.25-8.75c-14.096-16.106-31.634-28.413-49.813-39.562l-2.767-1.703c-20.324-12.467-41.128-23.905-62.328-34.807-10.935-5.632-21.639-11.61-32.306-17.737a417 417 0 0 0-7.169-3.972c-7.757-4.223-14.726-8.61-21.367-14.469 3.107 4.216 6.513 8.096 10 12l1.14 1.281c11.415 12.785 23.274 25.227 36.86 35.719q1.649 1.314 3.293 2.633c10.732 8.577 21.677 16.797 33.533 23.768 2.755 1.635 4.965 3.292 7.174 5.599-7.785-2.173-15.302-4.907-22.813-7.875l-1.82-.717C511.055 1201.804 487.4 1190.629 464 1179l-1.65-.82c-22.871-11.391-44.858-24.37-66.35-38.18l-1.511-.963c-18.744-11.991-36.718-25.76-53.083-40.842a303 303 0 0 0-6.191-5.468c-4.208-3.675-8.206-7.526-12.152-11.477l-2.111-2.113c-5.381-5.445-10.317-11.045-14.952-17.137l-1.871-2.449A438 438 0 0 1 300 1054c8.321 15.941 17.86 30.887 29 45l1.258 1.597c4.938 6.23 10.145 12.203 15.518 18.061a631 631 0 0 1 3.954 4.389c8.053 8.958 16.82 16.498 26.27 23.953l-2 1c-18.927-10.105-37.094-21.303-54.041-34.485a539 539 0 0 0-6.229-4.73c-9.211-6.933-18.097-14.144-26.73-21.785l-1.376-1.217A882 882 0 0 1 277 1078l-2.719-2.438c-6.024-5.424-11.85-11.028-17.594-16.75l-1.992-1.978a228 228 0 0 1-11.143-12.041c-1.889-2.182-3.844-4.298-5.802-6.418-36.011-40.019-61.349-87.511-77.813-138.5l-.832-2.56c-1.888-6.041-3.061-12.072-4.105-18.315l-11 6a337 337 0 0 0 2.339 20.783c.484 3.436.76 6.748.661 10.217-2.23-2.794-3.817-5.5-5.262-8.766l-1.201-2.695-1.224-2.789-1.26-2.836Q136.52 895.46 135 892c-4.102.568-6.724 1.866-10.141 4.176l-1.452.972a668 668 0 0 0-4.657 3.164l-3.261 2.206Q110.734 905.743 106 909l-2.445 1.673C91.389 919.029 79.685 927.99 68 937l-2-1c3.302-3.973 6.609-7.786 10.563-11.125 4.659-3.942 8.896-8.279 13.162-12.637 6.811-6.912 14.218-13.086 21.712-19.238l2.24-1.842c5.045-4.138 10.134-8.203 15.323-12.158-1.142-5.416-2.438-10.786-3.805-16.148-6.624-26.137-11.451-52.018-11.258-79.102l.014-3.738q.017-4.506.049-9.012l-2.116.789c-5.666 2.091-11.321 4.014-17.134 5.649-7.996 2.307-15.881 4.856-23.75 7.562l-2.732.936a4862 4862 0 0 0-9.081 3.126l-2.893.996c-5.498 1.909-10.875 3.966-16.207 6.303C38 797 38 797 35 796q4.403-2.202 8.81-4.398a635 635 0 0 0 11.885-6.055c11.883-6.168 24.017-11.523 36.368-16.672l2.43-1.017q3.455-1.441 6.917-2.866l2.097-.873c3.481-1.419 6.752-2.541 10.493-3.119l-.003-1.755c.061-13.878 1.359-27.16 3.816-40.807l.377-2.123c1.73-9.622 3.905-19.086 6.356-28.548.636-2.477 1.238-4.962 1.841-7.447 7.07-28.536 17.818-55.883 30.613-82.32-15.776 19.987-28.936 41.062-40 64-1.193-3.468-.797-5.585.266-9.059l.93-3.062 1.054-3.317.541-1.72c9.912-31.45 23.097-60.845 39.73-89.311a983 983 0 0 0 4.026-6.965c15.509-26.892 33.242-52.444 51.371-77.621 11.599-16.168 22.364-32.877 31.738-50.439a613 613 0 0 1 3.154-5.798c5.028-9.195 9.374-18.58 13.503-28.208l1.837-4.242c2.634-6.079 5.241-12.169 7.85-18.258l-2.719.035c-9.468.082-18.839-.34-28.281-1.035 2.717-3.297 6.121-4.607 9.934-6.293l4.154-1.912a579 579 0 0 1 6.53-2.948c9.469-3.71 9.469-3.71 16.179-10.816.706-1.991.706-1.991 1.203-4.031q.757-2.09 1.52-4.176.657-2.064 1.293-4.136l.693-2.127.639-2.049.573-1.83c.459-1.932.459-1.932-.718-4.682-1.879-1.275-1.879-1.275-4.234-2.348l-2.659-1.316-2.857-1.398C252.908 302.051 234.703 285.436 222 265l-1.067-1.684C211.213 247.804 205.269 230.731 201 213l-.548-2.271c-5.58-24.705-4.707-54.267 1.548-78.729l.764-3.02C208.79 105.744 217.641 82.974 234 65l1.957-2.203C243.4 54.854 252.648 49.304 263 46l1.681-.54c5.893-1.698 11.593-1.758 17.694-1.71m-27.312 38.312A174 174 0 0 0 252 86l-2.055 2.668c-21.762 29.253-29.08 69.61-24.023 105.306A237 237 0 0 0 228 205l.621 3.086c1.915 8.113 5.657 15.503 9.379 22.914l1.508 3.016C245.13 244.768 252.191 253.742 261 262c-4.389-3.267-8.753-6.549-13-10 4.86 11.777 18.134 21.681 29.504 26.559 8.367 3.438 8.367 3.438 17.246 4.503L298 283c3.016-8.562 3.499-16.484 3.446-25.477-.008-2.19.02-4.378.052-6.568.073-14.156-3.165-26.915-8.623-39.955l-1.155-2.796c-4.332-10.145-9.987-19.473-16.72-28.204 15.45 1.381 27.973 6.14 40 16l2.008 1.621A204 204 0 0 1 321 201c-.438-9.933-2.675-19.369-5-29l-.465-1.97c-7.321-30.75-22.013-65.734-49.953-83.104L264 86c1.5-.055 3-.093 4.5-.125l2.531-.07c14.813.974 27.69 9.677 37.766 19.983 1 1.007 2.049 1.964 3.109 2.907C328.355 123.514 338.255 147.458 345 168l.83 2.499c3.959 12.506 4.656 24.862 4.733 37.876l.027 2.29c.065 8.227-.427 16.021-2.387 24.034l-.473 1.943c-1.824 6.716-5.496 11.93-9.73 17.358l-2.074 2.668a262 262 0 0 1-3.676 4.59c-1.444 1.655-1.444 1.655-1.25 3.742l1.96-.429c7.306-1.478 14.287-1.875 21.727-1.821l3.26-.023c21.894.053 41.951 12.487 57.28 27.441 19.768 19.941 32.13 46.749 32.086 75.02-.044 5.695-.378 11.192-1.313 16.812l-.44-1.917C439.992 356.094 432.651 333.431 417 314l-1.36-1.7c-10.976-13.59-26.964-29.505-45.382-31.488-9.821-.79-17.463.451-26.258 5.188l-2.539 1.281c-16.048 8.763-25.354 22.191-31.648 38.942-.719 2.456-1.007 4.248-.813 6.777l9-2 1.874-.506c6.654-1.694 13.097-1.826 19.939-1.806l3.33-.049c21.024-.013 40.416 9.516 55.857 23.361l2.375 2.121c18.893 17.876 31.75 46.936 32.741 72.913.127 6.991.055 13.976-.116 20.966l-1.364-1.629c-3.208-3.762-6.158-7.162-10.386-9.809l-2.234-1.433c-7.044-3.945-18.34-3.172-26.028-1.457l-2.613.828c-6.146 1.815-12.179 1.84-18.562 1.875l-3.099.041c-11.573-.068-20.127-3.578-28.777-11.244-16.708-17.101-18.22-39.435-18.007-61.942q.033-2.615.07-5.23c-5.731-.155-10.893.348-16.5 1.5l-2.203.434c-1.767.348-3.532.706-5.297 1.066-3.067 7.28-5.583 14.69-8.002 22.202-13.398 41.356-34.416 77.166-57.789 113.589-7.764 12.108-15.37 24.287-22.698 36.664q-2.335 3.927-4.691 7.842C188.119 570.858 172.718 601.418 159 633l1 2 1.051-1.386c12.516-16.493 25.402-32.119 40.012-46.802l1.986-2 1.861-1.855 1.661-1.657C208 580 208 580 210 579a129 129 0 0 1-3.996 7.52c-25.839 45.285-42.223 94.369-54.629 144.792l-.751 3.015c-1.196 5.026-1.895 9.507-1.624 14.673a388 388 0 0 0 4.025-.665q2.136-.36 4.278-.69c11.302-1.714 11.302-1.714 20.647-7.691 3.453-4.937 5.937-10.326 8.05-15.954 0 2.14-.433 3.753-1 5.812-.814 3.146-1.204 5.92-1 9.188 5.388-.299 10.481-1.314 15.687-2.688 21.488-5.515 43.273-9.044 65.205-12.238l5.276-.771c30.588-4.459 60.662-7.489 91.58-7.433q4.801.006 9.602-.004 3.743-.005 7.487 0 2.621 0 5.242-.005c5.433.016 10.563.273 15.921 1.139 1.812.062 3.625.087 5.437.062l2.622-.027L410 717l-.048-3.263c-.536-40.333-.536-40.333 3.048-55.737l.602-2.711c7.328-32.407 22.385-62.182 44.201-87.299 10.484-12.183 18.91-25.702 26.197-39.99l1.341-2.588c12.649-24.759 20.863-51.55 29.444-77.92l2.402-7.367.577-1.765C535.005 385.882 560.081 340.473 601 303c0 2.181-1.951 3.916-3.151 5.661-4.116 5.993-7.973 12.054-11.412 18.464l-1.011 1.862c-1.743 3.32-2.908 6.25-3.426 10.013a96 96 0 0 0 9.125-10.188C603.566 313.392 620.44 302.811 638 294l1 1-2.055 2.387c-25.356 29.606-46.5 61.866-63.508 96.925l-1.059 2.181a1558 1558 0 0 0-3.007 6.245l-.898 1.861c-2.081 4.379-3.832 8.839-5.473 13.401 2.658-21.71 5.585-43.425 16-63l-1-2c-13.285 19.988-24.207 41.295-32 64l-1.566 4.418c-4.838 13.866-8.924 28.084-12.35 42.363-2.288 9.519-5.093 18.733-8.334 27.969l-.731 2.098c-9.701 27.828-20.417 54.861-40.796 76.714-2.396 2.628-4.626 5.352-6.848 8.126-2.487 3.093-5.016 6.052-7.875 8.812-4.167 4.042-7.769 8.513-11.36 13.062a420 420 0 0 1-3.257 4.04C437.567 624.069 424.874 647.846 419 672l-.702 2.873c-5.622 20.818-5.622 20.818-7.298 42.127l2.032.196c3.055.308 6.105.649 9.155.992l3.198.306c8.76 1.023 8.76 1.023 11.822 3.924 2.205 3.175 2.452 4.793 1.793 8.582-1.193 1.675-1.193 1.675-3 3-2.414.249-2.414.249-5.41.074l-3.587-.167-1.984-.109c-3.772-.2-7.545-.329-11.32-.458l-2.64-.091C373.44 732.053 335.425 731.685 298 736l-2.46.279a2027 2027 0 0 0-31.262 3.796c-5.303.682-10.61 1.32-15.923 1.925-33.645 4.957-42.645 6.957-67.355 13-.853 2.559-1.162 4.21-1.281 6.836l-.114 2.226-.105 2.313a850 850 0 0 1-.219 4.523l-.092 2.021C179 775 179 775 178.493 777.273c-.635 3.511-.655 6.905-.661 10.465l-.012 2.273a1367 1367 0 0 0-.007 7.301l-.002 2.505c-.127 23.249-.127 23.249 3.189 46.183 4.899-1.432 8.982-3.551 13.375-6.125 6.522-3.738 13.12-7.211 19.867-10.523a750 750 0 0 0 11.078-5.579c15.63-7.976 31.4-15.22 47.68-21.773l3.016-1.231C303.774 789.478 332.746 779.574 362 773l1.662-.374c15.339-3.434 30.671-6.298 46.263-8.338 2.792-.387 5.556-.887 8.325-1.413 23.439-4.416 23.439-4.416 31.75 1.125.109 1.248.186 2.499.25 3.75l.141 2.109c-.608 3.332-1.586 4.198-4.391 6.141-3.598.954-7.248 1.36-10.937 1.812q-3.553.496-7.102 1.008l-1.916.274c-36.294 5.267-72.323 13.707-107.121 25.267a2166 2166 0 0 1-6.087 2.01C292.251 813.169 271.977 820.573 252 829l-1.662.7c-15.69 6.628-31.026 13.972-46.338 21.425l-2.651 1.29a3440 3440 0 0 0-7.474 3.655l-2.278 1.113-2.105 1.036-1.832.9c-1.633.867-3.142 1.828-4.66 2.881 4.156 34.669 18.468 67.611 33 99 1.297-3.892.146-6.282-1.125-10a1119 1119 0 0 1-1.41-4.387l-.739-2.31c-3.674-11.654-6.235-23.351-8.039-35.428l-.519-3.448c-.876-6.186-1.412-12.18-1.168-18.427l.707 3.285C210.378 919.678 222.051 948.349 236 975c3.382-1.127 3.652-1.583 5.41-4.492l1.311-2.137 1.342-2.246 2.66-4.367 1.18-1.965C249 958 249 958 250.129 956.483c3.109-5.292.205-15-.629-20.733-1.111-7.986-1.969-15.677-1.5-23.75l.664 2.789c2.272 9.185 5.369 17.628 9.336 26.211 1.772.464 1.772.464 4 0a62 62 0 0 0 5.313-5.5l1.357-1.531a458 458 0 0 0 5.85-6.758c4.832-5.631 9.986-10.903 15.23-16.147 1.489-1.49 2.969-2.989 4.449-4.488 6.285-6.321 12.829-12.023 19.801-17.576a316 316 0 0 0 3.355-2.863c8.244-7.136 16.836-13.715 25.645-20.137l2.031-1.488C364.036 850.637 384.163 838.893 405 828l2.933-1.543c11.343-5.937 22.85-11.406 34.64-16.392q1.904-.805 3.803-1.624c12.576-5.396 12.576-5.396 19.624-4.441 2.024 1.154 3.332 2.332 5 4 .491 5.398.491 5.398-1.663 8.041-2.574 2.158-4.868 3.285-7.974 4.553l-1.659.69q-1.768.735-3.541 1.459a860 860 0 0 0-9.511 3.984l-1.956.827c-33.232 14.127-65.16 32.03-95.009 52.321l-1.529 1.039c-10.015 6.826-19.711 14.073-29.221 21.586l-1.764 1.392c-8.062 6.376-16.001 12.833-23.591 19.772a214 214 0 0 1-4.311 3.818c-5.697 4.889-10.994 10.125-16.271 15.456l-2.637 2.65A3496 3496 0 0 0 264 952c.967 5.929 3.633 10.8 6.313 16.125l.804 1.605c7.882 15.66 17.42 30.219 27.883 44.27l1.193 1.614c9.637 12.987 20.19 25.137 31.807 36.386a668 668 0 0 1 7.727 7.797c6.005 6.14 12.139 11.758 18.884 17.088 1.921 1.542 3.79 3.142 5.665 4.739 16.528 14.026 34.768 25.821 53.224 37.126l1.549.953q2.175 1.335 4.357 2.656l2.541 1.546c1.959 1.252 1.959 1.252 4.053 1.095-1.378-3.009-3.006-5.342-5.125-7.875C408.114 1095.749 391 1055.679 391 1028l1.547 2.938c5.611 10.432 12.065 19.815 19.453 29.062l1.431 1.802c20.762 25.943 49.677 43.345 78.921 58.284 5.425 2.777 10.761 5.699 16.085 8.664 9.337 5.177 18.829 9.951 28.414 14.647 18.931 9.295 37.454 19.113 55.399 30.228l1.969 1.218c2.897 1.828 5.498 3.56 7.781 6.157l2-1c-9.457-9.818-18.989-18.954-30-27l-2.134-1.565c-6.483-4.744-12.991-9.454-19.596-14.025-8.957-6.223-17.209-13.066-25.27-20.41l-1.485-1.344C514.411 1105.497 507.299 1093.51 501 1080l1.801 2.09c5.909 6.743 12.146 12.4 19.199 17.91l2.32 1.949c10.599 8.857 22.578 15.837 34.43 22.863 26.414 15.691 52.6 33.313 71.25 58.188l1.153 1.516c8.411 11.174 14.421 23.633 19.847 36.484a30.5 30.5 0 0 0 3.445-6.336c7.994-19.259 19.682-36.016 34.555-50.664l1.253-1.239c8.52-8.327 17.868-15.136 27.747-21.761l2.066-1.39c8.468-5.664 17.13-10.924 25.934-16.048 15.155-8.859 28.965-18.811 42-30.562l1.718-1.547c6.767-6.093 6.767-6.093 13.282-12.453-5.334 9.937-10.887 19.236-18 28l-1.84 2.27c-3.999 4.742-8.375 8.793-13.16 12.73l-1.563 1.297c-7.633 6.315-15.446 12.212-23.652 17.762-17.31 11.71-33.153 25.029-47.785 39.941l1 2 1.191-1.095c4.831-4.305 9.978-7.732 15.496-11.093l2.773-1.699c12.623-7.675 25.562-14.742 38.815-21.267q6.676-3.3 13.225-6.846a486 486 0 0 1 14.875-7.688c29.977-14.889 60.306-30.069 85.625-52.312l1.466-1.283c16.539-14.559 29.095-31.343 39.534-50.717-2.423 15.605-6.565 30.186-12 45l-1.001 2.733c-6.444 17.335-14.124 33.012-25.999 47.267l2 1c11.643-6.579 23.01-13.379 34-21l2.07-1.426c22.333-15.414 43.01-32.622 62.243-51.762l1.993-1.979c23.89-23.968 44.291-52.677 58.881-83.175 1.782-3.636 3.788-7.153 5.813-10.658-1.335-2.934-2.822-5.116-5.02-7.469l-1.829-1.962-1.964-2.069-2.03-2.149c-8.95-9.384-18.441-17.95-28.561-26.055a417 417 0 0 1-5.428-4.507C971.536 891.808 946.717 874.582 921 860l-1.988-1.135c-24.866-14.157-50.385-27.628-77.096-37.961l-2.619-1.029-2.302-.883c-2.183-1.086-3.487-2.078-4.995-3.992-.522-4.1-.67-5.955 1.563-9.438 3.215-2.061 5.758-2.037 9.437-1.562 3.637.966 7.115 2.272 10.625 3.625l3.14 1.196c13.458 5.22 26.357 11.684 39.235 18.179l3.039 1.526c16.647 8.401 32.64 17.841 47.961 28.474l1.589 1.103c14.053 9.799 27.653 20.176 40.611 31.384a184 184 0 0 0 4.154 3.379c7.248 5.771 13.871 12.019 20.407 18.58a846 846 0 0 0 5.212 5.165c6.34 6.307 12.174 12.774 17.539 19.938l1.263 1.679 1.089 1.479c1.243 1.415 2.532 2.319 4.136 3.293 4.475-9.118 7.97-18.308 11-28 .198 7.557-.341 14.724-1.5 22.188q-.839 5.394-1.5 10.812l-.278 2.183c-.419 5.859 1.948 9.112 5.528 13.567l1.488 1.957c2.559 3.323 5.204 6.41 8.262 9.293a309 309 0 0 0 17-36l1.11-2.762c5.9-14.766 10.439-29.602 14.277-45.005C1099 889 1099 889 1100 887c.379 8.645-.996 16.882-2.437 25.375l-.386 2.314c-2.057 12.159-5.094 23.66-9.368 35.223l-1.149 3.119-1.043 2.705c-.879 2.401-.879 2.401.383 5.264l1.504-3.191.985-2.09 2.173-4.626a828 828 0 0 1 5.182-10.894c10.933-22.602 23.72-52.776 23.156-78.199-40.57-21.513-82.648-39.353-126.063-54.312l-2.187-.756a596 596 0 0 0-29.921-9.407 1125 1125 0 0 1-4.761-1.381C931.46 788.983 906.195 784.544 881 780l-5.148-.941c-6.933-1.259-13.83-2.421-20.852-3.059-2.706-3.833-3.326-6.325-3-11 4.69-4.288 8.564-4.536 14.797-4.312C904.829 763.29 942.85 772.211 979 784l2.115.688c34.27 11.173 67.123 24.445 99.366 40.555 2.085 1.039 4.177 2.066 6.269 3.093 8.527 4.201 16.94 8.618 25.336 13.073l2.59 1.368 2.31 1.227c2.131 1.111 2.131 1.111 5.014 1.996 3.822-29.761 3.517-61.213 0-91-46.955-12.044-95.66-17.924-144-21l-2.146-.141c-14.023-.897-28.034-1.016-42.08-.989q-4.551.006-9.101-.004c-14.156-.023-28.263.26-42.401 1.022-15.385.759-15.385.759-18.104-1.224-1.88-2.678-1.677-4.484-1.168-7.664 1.348-2.161 2.799-3.715 5-5 4.379-.874 8.741-1.25 13.191-1.5l2.024-.123q4.247-.256 8.493-.502 3.117-.185 6.233-.375l1.92-.107c2.544-.156 4.984-.358 7.475-.914 4.102-.738 8.184-.641 12.344-.647l2.884-.013q4.655-.013 9.311-.007l3.219.002c17.715.028 35.271.51 52.906 2.186l2.107.199A818 818 0 0 1 1055 727l2.302.404c35.736 6.279 35.736 6.279 50.726 10.174 3.757.969 7.05 1.678 10.972 1.422l-.437-2.301-.563-3.011-.563-2.989C1117 728 1117 728 1117 725l.715 1.421a451 451 0 0 0 3.348 6.391l1.123 2.237c2.363 4.389 4.202 6.827 8.991 8.437L1133 744l1.758.574c1.738.558 3.484 1.061 5.242 1.551l1.75.512c4.064 1.152 8.059 1.839 12.25 2.363-1.205-9.136-3.064-17.962-5.349-26.884q-.785-3.071-1.553-6.145C1135.271 669.059 1118.866 618.127 1091 578c4.418 3.691 8.561 7.494 12.52 11.68 1.398 1.542 1.398 1.542 3.48 1.32v2l2.563 2c12.152 10.134 22.808 24.797 31.437 38 1.292-3.877.438-4.905-1.219-8.582l-.754-1.69a628 628 0 0 0-2.527-5.54l-1.778-3.906c-10.158-22.197-21.113-43.819-33.768-64.707q-1.5-2.477-2.994-4.957a4123 4123 0 0 0-11.856-19.527q-3.435-5.628-6.838-11.275c-5.494-9.096-11.06-18.12-16.891-27.004-6.409-9.776-12.487-19.714-18.375-29.812l-1.708-2.91c-16.422-28.055-28.917-58.057-37.731-89.37-.421-1.731-.421-1.731-1.561-2.72-2.866-.667-5.784-1.087-8.687-1.562l-2.436-.42-2.389-.397-2.17-.361c-2.785-.312-5.518-.3-8.318-.26l.048 2.316c.775 43.525.775 43.525-14.485 61.184-8.26 8.496-17.056 14.4-29.254 15.031q-2.936.024-5.872-.031l-3.146-.023c-8.157-.181-15.624-1.578-23.502-3.567-7.993-2.001-13.966-1.621-21.25 2.379-4.605 3.103-8.571 6.836-12.539 10.711-.059-3.937-.094-7.875-.125-11.812l-.051-3.334c-.061-10.319 1.475-19.724 4.801-29.479l.784-2.307C879.124 385.603 885.238 373.281 894 362l1.855-2.414c12.761-15.4 33.09-28.156 53.145-30.586 4.042-.167 8.08-.185 12.125-.188l3.227-.037c10.292-.018 20.163 1.041 29.648 5.225-1.487-13.175-8.269-24.29-17-34l-1.605-1.887c-5.186-5.698-11.712-9.426-18.395-13.113l-2.465-1.395c-8.721-4.219-19.733-4.423-28.836-1.277C913.363 287.22 903.601 294.97 894 304l-1.832 1.602c-15.881 14.504-26.07 38.072-31.614 58.373a243 243 0 0 1-1.577 5.478c-1.268 4.349-2.122 7.992-1.977 12.547h-2c-.343-13.374-.257-25.988 3-39l.406-1.773c4.382-19.087 14.837-35.963 28.34-49.926a224 224 0 0 0 3.164-3.367c12.291-12.989 32.534-24.398 50.481-25.27 11.195-.295 21.779.462 32.609 3.336l-1.066-1.398c-3.525-4.657-6.961-9.365-10.266-14.18a124 124 0 0 0-3.117-4.344c-7.624-10.715-7.092-25.236-6.988-37.828l.01-2.409c.072-11.735.686-22.638 4.427-33.841l.748-2.399c10.198-32.642 28.602-64.063 59.666-80.378 7.148-3.38 13.755-3.482 21.586-3.223l-1.687 1.066C1006.051 106.644 991.501 145.122 984 179c-2.401 11.408-2.401 11.408-3 23l1.813-2c12.918-12.809 27.967-17.065 45.187-21l-1.906 2.5c-6.505 8.708-11.578 17.626-16.094 27.5l-1.207 2.531c-1.086 2.458-1.955 4.915-2.793 7.469l-.645 1.867c-3.805 11.362-4.842 22.306-4.855 34.195l-.013 2c-.025 8.916.446 17.804 4.513 25.938 16.325-.464 30.018-9.354 40.945-20.805L1048 260l-1-2-2 1 1.687-1.73c14.728-15.649 23.66-35.421 28.313-56.27l.562-2.394c1.782-8.446 1.836-16.825 1.813-25.418l-.002-2.339c-.102-31.658-8.578-64.892-30.373-88.849-3.378-3.231-6.797-6.258-11.063-8.25l-1.847-.891c-12.476-5.13-27.246-4.153-39.695.777-21.691 9.063-38.277 27.064-54.479 43.485-5.129 5.185-10.327 10.183-15.916 14.879l-2.582 2.188C907.495 145.502 907.495 145.502 900 148c1.35 3.954 3.076 6.425 5.875 9.5 12.856 15.1 24.643 37.765 28.125 57.5l-1.871-2.711C926.861 204.733 921.411 197.638 915 191l-1.531-1.609C866.213 139.901 794.313 117.805 728 110l-2.232-.269c-6.687-.744-13.306-.892-20.03-.899l-3.481-.01a2509 2509 0 0 0-7.259-.007q-3.672 0-7.344-.021c-13.041-.072-25.762.049-38.654 2.206-3.037.344-6.08.606-9.125.875-13.347 1.249-26.608 3.227-39.875 5.125a629 629 0 0 1 34.437-19.875l1.754-.945C644.326 91.804 652.573 87.781 661 84v-1c-7.331.784-14.526 2.177-21.75 3.625l-1.978.396c-21.481 4.322-42.657 9.688-63.517 16.415q-2.893.928-5.787 1.849c-35.914 11.471-70.618 25.605-103.839 43.508-3.813 2.055-7.677 3.989-11.566 5.895-6.375 3.134-12.48 6.646-18.563 10.312 4.636-6.816 10.25-12.674 15.879-18.66a236 236 0 0 0 6.996-7.778c3.194-3.706 6.618-7.151 10.125-10.562-3.255 0-4.111.446-6.809 2.09l-2.245 1.363-2.383 1.485-2.456 1.517a198 198 0 0 0-17.656 12.414 274 274 0 0 1-4.65 3.526c-7.201 5.391-13.871 11.166-20.421 17.326-2.042 1.892-4.154 3.702-6.255 5.529C390.14 185.847 377.763 200.585 367 216c4.626-12.746 9.571-25.055 16-37l.952-1.814c4.778-9.078 10.498-17.011 17.052-24.896 1.102-1.342 1.102-1.342 1.996-3.29l-1.949-.961c-12.856-6.639-23.174-15.847-33.598-25.773a234 234 0 0 0-8.453-7.641 68.4 68.4 0 0 1-7.313-7.437c-14.602-17.064-37.51-35.509-60.701-37.348-14.42-.785-25.834 1.083-35.923 12.222"/><path fill="#784f1c" fill-rule="nonzero" d="M599.216 587.583c13.43 4.827 27.335 9.516 41.737 9.62l1.977.022c22.159.191 40.057-2.598 60.937-10.021 8.329-2.954 16.627-5.632 25.195-7.829l2.77-.712c15.737-3.904 34.752-5.447 50.168.337l2.988 1.031c14.425 5.426 26.405 15.365 33.248 29.268 6.638 14.784 6.877 31.801 1.439 46.987-6.502 16.49-20.008 29.252-36.093 36.273-8.369 3.292-17.006 4.302-25.885 5.36-15.702 1.875-28.945 5.096-42.697 13.081l-2.645 1.535C684.519 730.037 671.624 762.757 663 793l-.587 1.958C659.03 806.43 659.665 818.165 660 830l.095 3.451c.309 14.236.309 14.236 1.648 28.396.524 4.396.732 8.822 1.015 13.238.673 10.336 1.55 20.626 2.742 30.915l.359 3.121c1.83 20.206 1.83 20.206 12.52 36.816 30.697 20.12 81.088 30.225 117.121 22.75 2.182-.517 4.335-1.095 6.5-1.687l2.777-.586C819.245 963.142 830.861 955.555 841 945l2.199-2.176c10.462-10.914 24.641-32.873 24.832-48.351-1.573-3.771-4.323-5.614-7.531-8.036l-2.015-1.565c-6.344-4.88-12.893-9.471-19.454-14.052-21.334-14.899-21.334-14.899-22.531-21.633C817 847 817 847 819 845c6.137.294 10.231 1.803 15.312 5.187l2.044 1.321C849.116 859.879 861.37 869.121 873 879c1.398-2.645 2.431-5.162 3.218-8.047l.637-2.312.645-2.391.644-2.344A585 585 0 0 0 882 849h1l-.349 3.231c-2.836 21.52-2.836 21.52 3.595 41.288 4.24 5.023 9.283 9.129 14.524 13.062 5.338 4.065 9.161 9.139 13.23 14.419a174 174 0 0 0 2.793 3.215c15.352 17.39 27.43 37.38 38.769 57.535l1.267 2.239c2.181 3.937 3.913 7.687 5.171 12.011-3.783-3.428-6.677-7.205-9.637-11.357-4.571-6.382-9.464-12.511-14.363-18.643l-1.16-1.453c-9.922-12.383-20.434-24.263-31.265-35.854a1086 1086 0 0 1-5.146-5.58l-3.554-3.863-1.688-1.846-1.57-1.701-1.387-1.511c-1.243-1.324-1.243-1.324-3.23-2.192v-2l-1.766-.805c-2.296-1.228-4.038-2.598-5.984-4.32l-1.86-1.633L878 902l-.147 1.458c-2.874 25.855-15.167 54.078-35.515 70.917-4.887 3.809-9.889 7.66-15.616 10.098-6.526 2.954-9.149 5.428-11.838 11.985-1.316 3.532-2.557 7.089-3.802 10.646-1.922 5.143-4.276 10.072-6.645 15.021l-1.318 2.832c-4.842 10.119-11.206 18.645-18.894 26.75a305 305 0 0 0-2.459 2.625c-11.732 12.634-25.119 21.569-40.766 28.668l-2.33 1.067c-10.577 4.832-20.93 9.494-32.295 12.12l-2.196.538c-4.169.978-7.899 1.471-12.179 1.275 3-2.355 6.097-4.271 9.422-6.137l1.529-.861q2.397-1.347 4.799-2.69l3.269-1.837q3.988-2.242 7.981-4.475l-3.043.77q-5.418 1.363-10.842 2.704-1.947.485-3.891.978c-8.359 2.125-16.643 3.35-25.194 4.305-1.973.236-3.936.514-5.901.809-16.919 2.501-32.592 1.672-49.379-1.316l-2.155-.383c-8.613-1.552-17.114-3.397-25.583-5.61-3.46-.937-3.46-.937-7.012-1.257l1.664.962 7.523 4.35 2.619 1.514c4.083 2.362 8.161 4.728 12.194 7.174-15.928 5.008-42.009-10.23-55.875-17.313-8.869-4.682-16.631-10.046-24.125-16.687l-1.816-1.587c-19.493-17.149-32.96-38.587-40.505-63.565-1.822-6.148-1.822-6.148-6.222-10.641a112 112 0 0 0-6.196-2.758c-5.75-2.377-10.461-6.57-15.261-10.449l-2.215-1.746C438.557 956.376 428.617 929.918 424 906c-.098-2.445-.098-2.445 0-4h-2l-1 3c-1.356 1.332-1.356 1.332-3.188 2.812-8.582 7.281-16.651 15.421-23.918 24.012-2.126 2.442-4.332 4.797-6.549 7.157A328 328 0 0 0 370 959q-1.656 2.01-3.316 4.016c-10.313 12.489-19.722 25.5-28.684 38.984l-1-2c17.187-32.53 36.046-63.317 61.394-90.203 2.637-2.803 5.117-5.716 7.52-8.723C407 900 407 900 409 900v-2c1.679-1.656 1.679-1.656 3.875-3.5 4.204-3.031 4.204-3.031 6.365-7.335l-.013-2.248-.001-2.547-.031-2.753-.009-2.816c-.011-2.976-.036-5.951-.061-8.926l-.028-6.043A3667 3667 0 0 0 419 847l2 1 .319 1.601c.492 2.447.993 4.892 1.493 7.336l.502 2.518c1.032 5.004 2.33 9.747 4.106 14.539.607 2.1.686 3.832.58 6.006l1.519-1.258C471.943 844.196 471.943 844.196 484 845c1 1 1 1 1.375 4.187-.088 4.4-2.34 6.83-5.375 9.813-2.631 2.167-5.391 4.117-8.188 6.062l-4.824 3.422-2.494 1.756q-6.018 4.256-11.994 8.572l-2.27 1.634c-5.554 4.017-10.96 8.171-16.23 12.554 5.146 24.335 19.288 49.18 40.216 63.1 9.282 5.884 19.152 9.347 29.784 11.9l2.202.548c6.954 1.58 13.686 1.762 20.798 1.702l1.799-.011c29.131-.216 73.561-5.34 96.523-25.394 6.717-7.122 8.344-17.633 9.74-26.97l.496-3.209c1.94-13.182 3.049-26.447 4.117-39.723.289-3.562.617-7.119.954-10.677 3.814-40.163 3.814-40.163-3.629-79.266a2223 2223 0 0 1-1.832-5.512C628.117 758.744 618.639 738.666 603 723l-2.075-2.109c-6.223-5.936-13.322-9.997-20.925-13.891l-2.864-1.473c-12.003-5.551-25.521-7.272-38.574-8.527-17.608-1.757-33.308-8.985-44.871-22.684-8.635-10.67-12.542-21.761-13.691-35.316l-.254-2.77c-.674-14.489 4.729-28.74 13.816-39.855 28.78-30.589 70.559-21.454 105.654-8.792"/><path fill="#ead3a9" fill-rule="nonzero" d="M808 558a287 287 0 0 1 10.375 10.812l1.462 1.6a537 537 0 0 1 9.436 10.619 237 237 0 0 0 3.766 4.188C864.998 620.001 891.652 668.385 891 717l-2.032.196c-3.055.308-6.105.649-9.156.992l-3.197.306c-6.459.619-6.459.619-11.822 3.924-2.205 3.175-2.452 4.793-1.793 8.582 1.111 1.774 1.111 1.774 3 3 6.085.773 12.537.088 18.656-.237 14.845-.781 29.668-.968 44.532-.951l1.855.002c38.711.044 76.552 3.478 114.957 8.186l2.466.299c24.713 3.003 49.505 7.08 73.534 13.701 3.517 29.787 3.822 61.239 0 91-4.093-1.532-7.85-3.447-11.68-5.527l-3.968-2.135-2.089-1.125c-13.907-7.482-27.897-14.644-42.263-21.213l-2.854-1.316c-29.606-13.59-60.166-24.384-91.238-34.084a576 576 0 0 1-5.267-1.688c-8.794-2.809-17.692-4.88-26.703-6.85l-2.366-.521C912.959 767.009 892.091 762.476 871 761l-1.909-.137c-7.807-.608-7.807-.608-14.903 2.137-2.485 1.81-2.485 1.81-2.376 4.688.209 3.691 1.211 5.266 3.188 8.312l3.051.297c8.761.91 17.287 2.285 25.889 4.177a286 286 0 0 0 14.685 2.838C971.622 795.726 1041.96 822.723 1119 862c-.494 7.276-1.832 14.036-3.75 21.062l-.821 3.057c-.801 2.963-1.614 5.922-2.429 8.881l-.625 2.327c-5.998 22.284-15.072 43.104-25.375 63.673-1.211-3.632-.687-4.473.66-7.969l1.149-3.119.62-1.679c4.297-11.76 7.077-23.516 9.133-35.858l.387-2.276c1.298-7.747 2.396-15.219 2.051-23.099l-.579 1.905-.812 2.669-.894 2.942q-.972 3.195-1.948 6.39c-1.952 6.379-1.952 6.379-3.841 12.778-4.356 14.841-10.238 29.144-16.676 43.191l-1.393 3.042c-2.405 5.176-4.934 10.18-7.857 15.083-3.847-3.681-7.153-7.529-10.312-11.812l-1.377-1.752c-5.082-6.916-3.438-13.336-2.245-21.422q.432-2.809.868-5.618c.957-6.512 1.238-12.817 1.066-19.396l-.579 1.709a2752 2752 0 0 1-2.671 7.791l-.91 2.688c-1.902 5.504-4.079 10.683-6.84 15.812a122 122 0 0 1-8.842-9.554c-6.693-8.005-13.924-15.437-21.283-22.821l-1.529-1.544c-6.037-6.086-12.212-11.781-18.912-17.133-2.537-2.031-4.979-4.143-7.413-6.294-8.883-7.831-18.395-14.772-28.021-21.654l-1.84-1.316A489 489 0 0 0 944 855l-1.798-1.219C892.253 818.756 892.253 818.756 836 804c-2.583 1.417-2.583 1.417-4 4-.318 2.437-.19 4.524 0 7 4.62 4.353 10.034 6.253 15.875 8.562C860.174 828.543 872.092 834.143 884 840c-1.204 7.68-2.627 15.253-4.438 22.812l-.619 2.694c-1.213 5.108-2.717 9.737-4.943 14.494-3.715-2.094-6.871-4.513-10.062-7.312-5.449-4.656-11.194-8.829-17.063-12.938l-2.492-1.751C832.697 849.398 832.697 849.398 819 846c-1.336 1.111-1.336 1.111-1.125 3.938.978 6.124 6.436 9.584 11.125 13.062 3.871 2.743 7.799 5.401 11.739 8.046C850.667 877.728 860.021 885.09 869 893c-.554 5.86-2.237 10.676-4.562 16.062l-1.081 2.522C858.322 923.098 852.422 933.596 844 943l-1.214 1.363c-15.427 17.071-36.083 25.203-58.864 26.861-3.186.116-6.36.156-9.547.151h-1.734c-18.136-.053-36.359-2.855-53.641-8.375l-3.053-.958q-4.423-1.396-8.835-2.832a853 853 0 0 0-3.528-1.139C689.455 953.515 677.159 948.82 670 935c-2.646-7.001-3.74-14.096-4.562-21.5l-.373-3.18q-.37-3.179-.729-6.357-.447-3.931-.934-7.858a324 324 0 0 1-2.061-25.563c-.148-3.477-.355-6.895-.833-10.343-1.182-8.85-1.146-17.862-1.404-26.779a647 647 0 0 0-.228-6.535c-.557-14.406.897-27.09 5.124-40.885l.779-2.55c9.206-29.394 24.129-59.416 52.221-74.677 14.073-7.357 27.993-10.997 43.783-12.438 19.734-1.822 36.157-9.227 49.221-24.71 14.014-18.887 15.244-43.768 12.492-66.406-.614-4.129-1.483-8.171-2.496-12.219l-.52-2.106c-2.467-9.699-5.927-18.722-10.125-27.796C808 560 808 560 808 558"/><path fill="#c8965c" fill-rule="nonzero" d="M599.216 587.583c13.43 4.827 27.335 9.516 41.737 9.62l1.977.022c22.159.191 40.057-2.598 60.937-10.021 8.329-2.954 16.627-5.632 25.195-7.829l2.77-.712c15.737-3.904 34.752-5.447 50.168.337l2.988 1.031c14.425 5.426 26.405 15.365 33.248 29.268 6.638 14.784 6.877 31.801 1.439 46.987-6.502 16.49-20.008 29.252-36.093 36.273-8.369 3.292-17.006 4.302-25.885 5.36-15.702 1.875-28.945 5.096-42.697 13.081l-2.645 1.535c-28.565 17.96-43.026 53.413-50.453 84.965q-1.05 4.73-1.902 9.5l-2-1-.136-3.056c-.815-18.048-1.717-36.075-3.364-54.069l-.181-2.014A353 353 0 0 0 651 721c-2.485 10.703-2.872 21.633-3.563 32.562A3442 3442 0 0 0 646 776l-.151 2.442c-.682 11.224-1.112 22.443-1.412 33.683l-.131 4.668Q644.15 822.396 644 828h-1l-.013-1.794C642.547 789.671 629.325 749.371 603 723l-2.075-2.109c-6.223-5.936-13.322-9.997-20.925-13.891l-2.864-1.473c-12.003-5.551-25.521-7.272-38.574-8.527-17.608-1.757-33.308-8.985-44.871-22.684-8.635-10.67-12.542-21.761-13.691-35.316l-.254-2.77c-.674-14.489 4.729-28.74 13.816-39.855 28.78-30.589 70.559-21.454 105.654-8.792"/><path fill="#ead3a9" fill-rule="nonzero" d="m278 940 .911 1.718c15.291 28.718 32.782 55.884 54.894 79.876a163 163 0 0 1 3.578 4.027c5.13 6.002 10.642 11.59 16.222 17.169q2.447 2.456 4.883 4.923A226 226 0 0 0 379 1066a598 598 0 0 1 3.688 3.062L385 1071l-.734-1.887c-1.212-3.34-2.272-6.702-3.266-10.113l-.582-1.985c-7.176-26.012-5.956-57.258 1.582-83.015h2l.375 1.625c2.113 8.03 5.777 15.114 9.609 22.429q1.356 2.605 2.672 5.231c20.456 39.659 52.757 69.721 91.191 91.49A276 276 0 0 1 495 1099l-.763-1.598c-9.84-20.778-15.52-41.111-15.237-64.402 2.835 2.462 4.083 5.042 5.625 8.438 5.201 10.882 13.157 19.84 21.375 28.562l1.664 1.824c20.365 21.519 49.888 34.859 76.176 47.504 29.352 14.229 52.087 31.516 65.566 61.902.594 1.77.594 1.77.594 4.77h2l.375-1.441c3.563-12.093 10.196-23.253 18.625-32.559l2.164-2.445c13.982-14.917 33.026-24.251 51.125-33.211 33.68-16.324 33.68-16.324 63.711-38.344q1.501-1.306 3.004-2.609c13.587-11.936 23.325-26.048 30.996-42.391h1c-.804 22.968-3.675 44.294-14 65 17.487-9.653 34.527-20.121 49-34a660 660 0 0 1 3.75-3.125c10.685-9.344 19.994-20.363 28.25-31.875l1.184-1.619C902.859 1011.292 912.339 992.706 919 974c2.232 2.232 2.423 3.098 3.035 6.105l.514 2.483.513 2.6.526 2.541c1.483 7.277 2.567 14.29 2.58 21.716l.01 2.096q.007 2.187.007 4.372c.002 2.186.021 4.37.04 6.556.046 11.234-.908 21.96-4.163 32.781l-.518 1.745A332 332 0 0 1 917 1071c5.534-3.858 10.513-8.183 15.435-12.777a278 278 0 0 1 8.374-7.512c4.615-4.022 8.937-8.31 13.253-12.649l2.315-2.302A260 260 0 0 0 970 1021q1.28-1.462 2.562-2.922c11.446-13.208 22.12-27.287 31.438-42.078l1.46-2.3c6.971-11.008 13.633-22.083 19.54-33.7 4.105 1.592 6.427 4.392 9.25 7.625l1.391 1.563A677 677 0 0 1 1039 953c-9.423 24.765-24.931 47.163-41 68l-1.165 1.512c-4.598 5.94-9.506 11.547-14.577 17.086-1.521 1.695-3.002 3.423-4.488 5.148-3.997 4.576-8.223 8.899-12.52 13.192l-2.409 2.406c-4.885 4.834-9.812 9.376-15.232 13.605-2.426 1.907-4.75 3.89-7.075 5.917-19.991 17.333-43.217 32.627-66.534 45.134l-2-1 1.434-1.625c4.343-5.148 7.954-10.435 11.254-16.313l1.077-1.912c5.308-9.662 9.421-19.824 13.235-30.15l.657-1.773c5.196-14.085 9.348-28.312 11.343-43.227l-1.398 2.57c-33.364 60.388-96.652 87.498-155.495 117.43-18.747 9.541-37.331 19.196-54.107 32-.993.677-1.99 1.348-3 2 2.075-4.578 5.217-7.56 8.75-11.062l2.038-2.023c6.346-6.202 13.062-11.675 20.212-16.915l2.138-1.57c6.508-4.761 13.051-9.473 19.663-14.09 7.626-5.342 14.782-11.042 21.806-17.153 1.326-1.13 2.693-2.211 4.061-3.289 12.051-9.81 20.103-24.432 27.332-37.898l-2.098 2.117c-17.985 17.966-37.685 32.435-59.652 45.195a380 380 0 0 0-23 14.5l-2.667 1.812c-13.112 9.041-25.344 19.149-35.583 31.376l-3.5 3.875c-11.102 12.759-18.673 27.366-24.5 43.125-2.455-1.228-2.514-1.851-3.445-4.359l-.812-2.113-.868-2.278c-16.349-41.082-53.935-67.088-90.514-88.799-14.755-8.763-28.503-18.068-41.361-29.451l-2.629-2.293A222 222 0 0 1 501 1081c15.147 28.877 36.672 46.207 62.918 64.773 14.482 10.254 27.7 21.518 40.082 34.227-3.736 0-4.375-.879-7.25-3.188-16.243-12.338-35.71-21.004-53.815-30.274a937 937 0 0 1-14.247-7.476 582 582 0 0 0-15.313-7.874c-23.276-11.576-46.643-23.37-67.375-39.188l-1.731-1.303c-13.912-10.498-25.995-21.565-36.269-35.697l-1.218-1.661c-5.9-8.094-10.956-16.569-15.782-25.339 5.644 30.144 14.57 70.923 37.262 93.223C430 1123 430 1123 430 1125c-4.615-1.652-8.676-4.01-12.875-6.5l-2.265-1.34c-25.562-15.263-49.332-33.43-71.141-53.664-2.294-2.122-4.648-4.162-7.031-6.184-3.297-2.854-6.1-5.965-8.915-9.289-1.798-2.051-3.689-3.938-5.648-5.835-4.314-4.265-8.124-8.885-11.889-13.631-1.305-1.644-2.62-3.28-3.935-4.916-6.119-7.653-11.936-15.441-17.301-23.641l-1.46-2.229c-6.706-10.322-12.842-20.865-18.415-31.833l-.815-1.579c-.76-1.479-1.5-2.968-2.24-4.457l-1.288-2.578c-.896-2.663-.857-3.755.218-6.324 1.092-1.464 1.092-1.464 2.434-2.797l1.466-1.465 1.538-1.488 1.525-1.535C275.733 940 275.733 940 278 940"/><path fill="#c8965c" fill-rule="nonzero" d="M891 783c6.517-.267 12.228.711 18.562 2.188l6.153 1.39 3.16.721c2.996.672 5.997 1.311 9.004 1.935 12.901 2.686 25.535 5.86 38.121 9.766l2.04.631c42.764 13.252 84.504 29.391 124.835 48.869l1.756.847c8.245 3.996 16.33 8.257 24.369 12.653-.494 7.276-1.832 14.036-3.75 21.062l-.821 3.057c-.801 2.963-1.614 5.922-2.429 8.881l-.625 2.327c-5.998 22.284-15.072 43.104-25.375 63.673-1.211-3.632-.687-4.473.66-7.969l1.149-3.119.62-1.679c4.297-11.76 7.077-23.516 9.133-35.858l.387-2.276c1.298-7.747 2.396-15.219 2.051-23.099l-.579 1.905-.812 2.669-.894 2.942q-.972 3.195-1.948 6.39c-1.952 6.379-1.952 6.379-3.841 12.778-4.356 14.841-10.238 29.144-16.676 43.191l-1.393 3.042c-2.405 5.176-4.934 10.18-7.857 15.083-3.847-3.681-7.153-7.529-10.312-11.812l-1.377-1.752c-5.082-6.916-3.438-13.336-2.245-21.422q.432-2.809.868-5.618c.957-6.512 1.238-12.817 1.066-19.396l-.579 1.709a2752 2752 0 0 1-2.671 7.791l-.91 2.688c-1.902 5.504-4.079 10.683-6.84 15.812a122 122 0 0 1-8.842-9.554c-6.693-8.005-13.924-15.437-21.283-22.821l-1.529-1.544c-6.037-6.086-12.212-11.781-18.912-17.133-2.537-2.031-4.979-4.143-7.413-6.294-8.883-7.831-18.395-14.772-28.021-21.654l-1.84-1.316A489 489 0 0 0 944 855l-1.798-1.219C924.368 841.739 905.393 831.306 886 822l.367-1.852c1.489-8.129 2.256-16.26 2.935-24.492l.233-2.777.2-2.482c.277-2.507.736-4.932 1.265-7.397"/><path fill="#ead3a9" fill-rule="nonzero" d="M663.313 977.375c47.059 14.392 47.059 14.392 95.641 19.758l2.245.003q2.339 0 4.679-.006 3.528-.005 7.056.007c8.083.003 16.031-.171 24.067-1.137-2.722 11.81-12.047 21.329-20 30l-1.294 1.431c-11.154 12.23-25.522 22.293-41.706 26.569l-2-1 1.389-1.358q3.156-3.096 6.298-6.205l2.186-2.134c4.2-4.163 7.903-8.338 11.127-13.303l-1.231.807c-9.067 5.905-18.148 11.191-28.099 15.464-1.588.693-3.15 1.444-4.71 2.198-5.217 2.225-10.824 3.348-16.329 4.638q-2.894.68-5.786 1.375c-11.617 2.772-22.884 5.108-34.845 5.518l-2.997.103c-21.065.61-40.932-1.508-61.214-7.573-1.893-.561-3.793-1.086-5.696-1.612-14.951-4.256-28.081-11.54-41.093-19.918 0 2.192 2.567 4.328 3.937 6l1.217 1.488c3.995 4.81 8.344 9.173 12.846 13.512a849 849 0 0 1 3 3c-13.922-3.808-26.397-10.276-37-20a411 411 0 0 0-2.668-2.277c-4.627-3.967-4.627-3.967-6.332-5.723v-2h-2c-5.083-5.887-9.775-11.9-14-18.437l-1.168-1.79c-.357-.563-.715-1.126-1.082-1.707l-.954-1.501c-.924-1.816-1.368-3.579-1.796-5.565l1.39.203c26.134 3.381 52.061.483 77.61-5.203l1.805-.402c6.802-1.523 13.564-3.185 20.321-4.891 4.773-1.174 9.574-2.213 14.374-3.27 7.432-1.644 14.726-3.539 21.96-5.914 7.665-2.428 13.363-1.521 20.852.852"/><path fill="#c8965c" fill-rule="nonzero" d="m929.188 732.813 1.856.002c38.711.044 76.551 3.478 114.956 8.186l2.466.299c24.714 3.003 49.506 7.08 73.534 13.701 3.517 29.787 3.823 61.239 0 91-4.093-1.533-7.85-3.447-11.679-5.528l-3.969-2.134-2.089-1.126c-13.907-7.482-27.897-14.644-42.263-21.212l-2.854-1.317c-29.606-13.589-60.166-24.384-91.238-34.083a574 574 0 0 1-5.26-1.688c-8.855-2.834-17.821-4.878-26.898-6.85l-4.75-1.045c-12.969-2.842-25.969-5.475-39-8.017v-28h-12v-1c16.399-.918 32.766-1.208 49.188-1.188"/><path fill="#ead3a9" fill-rule="nonzero" d="M1050 86c18.441 17.31 26.358 51.079 27.314 75.275.5 16.224.439 32.076-4.314 47.725q-.515 1.898-1.027 3.797c-4.61 16.105-13.354 30.402-23.973 43.203a306 306 0 0 0-3 4l3-2c-5.519 12.664-18.868 18.238-30.816 23.16-4.195 1.526-7.73 2.183-12.184 1.84q-.721-2.124-1.438-4.25l-.808-2.391c-5.523-17.283-2.788-40.601 3.246-57.359l.861-2.418c4.998-13.631 11.853-26.38 21.139-37.582-16.205 3.401-32.182 7.683-44 20l-3 3c.533-8.847 2.032-17.379 4-26l.5-2.188c5.522-23.614 14.431-47.542 29.5-66.812l2.078-2.758c7.121-9.249 19.829-24.205 32.922-18.242M381.777 284.324c29.866 15.039 47.816 43.091 58.233 73.997.712 2.215 1.359 4.44 1.99 6.679l.816 2.762c2.613 9.812 2.738 19.389 2.684 29.488l-.006 2.663c-.1 22.582-1.761 46.889-18.283 64.013-14.51 13.612-30.424 22.479-49.149 28.886l-1.826.628c-14.064 4.617-33.328 4.925-47.236-.44-2.336-1.606-2.336-1.606-4-3l3.375-.297c23.214-2.206 43.406-8.681 61.468-24.004 1.995-1.572 3.9-2.571 6.157-3.699 1.498-2.338 1.498-2.338 2-5l-2.598.84-3.465 1.097-1.701.553c-15.593 4.901-34.057 4.225-48.736-2.99-16.331-9.548-24.322-23.431-29.254-41.219-3.091-14.699-1.647-30.819-.371-45.656l.237-2.845.255-2.616.222-2.298C313 360 313 360 315 358c1.945-.196 1.945-.196 4.125-.125l2.195.054L323 358l-.032 2.18c-.315 24.877.81 46.934 19.036 65.906 11.901 11.04 24.781 10.448 40.231 10.072 4.191-.24 7.768-1.233 11.772-2.475 4.093-.934 8.056-1.066 12.243-1.121l2.259-.066c8.246.029 14.035 3.631 19.928 9.129l2.559 2.351C433 446 433 446 434 448c.718-21.333-1.345-40.372-10-60l-.891-2.031c-11.697-26.126-31.322-43.74-57.848-54.032-8.319-2.908-16.328-3.12-25.074-3.125l-3.447-.037c-6.551-.011-12.426.494-18.74 2.225l-9 2c1.526-14.121 9.972-29.039 21-38 15.076-12.051 33.25-18.826 51.777-10.676M264 86c4.143 2.131 7.535 4.933 11 8l1.379 1.185C303.268 118.625 317.194 161.466 321 196c.025 1.666.033 3.334 0 5l-1.18-1.066C306.377 188.07 292.826 181.593 275 180l1.941 2.789C286.958 197.36 293.846 212.049 299 229l.631 2.014c1.903 7.067 1.706 14.322 1.685 21.587-.003 2.262.02 4.524.045 6.786.035 8.378-.512 15.648-3.361 23.613-13.043 1.186-26.657-6.532-36.395-14.598C256.678 264 252.349 258.961 248 254l1-2 11 10c-2.547-3.184-4.978-6.067-7.75-9-10.484-11.788-17.759-26.962-22.25-42l-.973-2.727c-10.325-32.9-4.034-72.81 10.973-103.273l.802-1.641C246.02 92.833 250.977 83.603 264 86"/><path fill="#784f1c" fill-rule="nonzero" d="M660 292c23.852 7.272 48.712 27.41 61 49-3.949-8.189-8.003-16.265-12.688-24.062l-1.077-1.8c-2.555-4.188-5.339-8.18-8.235-12.138 3.635 0 4.029.617 6.59 3.043l2.108 1.984 2.24 2.161 2.311 2.21c33.108 31.921 52.83 71.459 69.189 113.914l.926 2.401c1.675 4.441 3.153 8.908 4.527 13.451 2.238 7.386 4.811 14.637 7.421 21.898q1.485 4.138 2.965 8.278l.729 2.034a480 480 0 0 1 3.81 11.067c9.4 28.414 22.32 56.87 41.76 79.786C855.049 578.777 864.479 593.445 873 609l1.059 1.909c7.462 13.585 11.59 28.091 15.253 43.091l.772 3.146c2.521 10.701 3.081 21.034 3.046 31.986q-.005 2.995.007 5.989c.003 6.363-.127 12.58-1.137 18.879-2.482-2.842-2.529-6.113-2.898-9.707-.971-8.161-2.705-16.022-4.727-23.981l-.531-2.105C877.262 652.303 866.017 628.453 850 607l-1.097-1.47c-4.498-5.953-9.478-11.458-14.528-16.94-2.59-2.813-5.102-5.688-7.605-8.578a251 251 0 0 0-3.883-4.305c-8.292-9.008-15.261-18.329-21.449-28.895l-1.281-2.171c-7.695-13.445-13.558-27.63-18.719-42.203l-.848-2.369c-4.359-12.2-8.287-24.446-11.726-36.94-9.555-34.599-19.721-68.784-38.856-99.509A423 423 0 0 1 726 357l.571 1.626c1.938 5.649 3.506 11.311 4.867 17.124l.637 2.711a632 632 0 0 1 4.3 20.101l.545 2.685.478 2.507.428 2.197c.191 2.248-.162 3.906-.826 6.049-4.187-7.593-8.145-15.241-11.785-23.113-15.009-32.331-36.195-63.383-59.789-90.102A88 88 0 0 1 660 292"/><path fill="#ead3a9" fill-rule="nonzero" d="M956.097 284.307c18.266 9.293 30.834 24.529 37.223 43.829C994 331 994 331 993 334l-2.75-1.375c-15.992-6.8-40.204-6.172-56.231.157-9.428 3.87-17.875 8.542-25.686 15.098a201 201 0 0 1-3.939 3.198c-20.627 17.269-33.23 47.414-36.199 73.686-.762 8.716-.932 17.493-1.195 26.236-12.635-16.069-10.837-46.758-10-66l.123-2.905c.461-7.471 1.966-14.272 4.189-21.408l.518-1.676c8.867-28.345 26.249-57.033 53.24-71.172 13.595-6.958 26.456-10.362 41.027-3.532"/><path fill="#784f1c" fill-rule="nonzero" d="M599.216 587.583c13.43 4.827 27.335 9.516 41.737 9.62l1.977.022c22.159.191 40.057-2.598 60.937-10.021 8.329-2.954 16.627-5.632 25.195-7.829l2.77-.712c15.737-3.904 34.752-5.447 50.168.337l2.988 1.031c14.395 5.415 26.399 15.349 33.248 29.22 3.124 7.156 5.062 14.939 4.764 22.749-2.418-3.045-4.226-6.203-6.063-9.625-8.674-15.269-22.727-23.191-39.263-27.938-27.06-7.062-55.09 5.511-79.737 15.375-4.601 1.794-9.219 3.166-14 4.375l-1.857.47c-32.73 7.863-61.801 1.753-92.467-10.323-24.152-9.503-50.264-16.811-75.416-6.603-15.211 6.785-26.573 19.06-33.197 34.269-1.588-4.057-.479-7.509.562-11.563l.554-2.156C486.491 602.259 496.858 591.133 511 583c28.312-14.686 60.065-5.573 88.216 4.583"/><path fill="#ead3a9" fill-rule="nonzero" d="m979 358 9 1c3.041 10.745 3.209 21.639 3.24 32.733.01 2.066.041 4.132.072 6.199.098 11.988-1.228 23.565-6.937 34.318l-1.056 2.025c-6.98 12.869-18.147 22.027-32.221 26.252-13.617 3.068-28 2.635-41.262-1.652-2.819-1.022-2.819-1.022-5.836-.875 21.72 20.523 43.555 28.725 73 32-6.895 6.895-18.848 6.452-27.875 6.5-9.998-.088-18.791-.944-28.125-4.5l-2.039-.731C901.802 485.068 876.738 472.033 868 455c-.55-3.26-.146-5.908 1-9 5.501-6.813 13.526-12.723 22.219-14.438 4.779-.261 9.089.722 13.683 1.882 8.233 2.06 16.035 2.993 24.536 3.056l2.975.055c10.72-.087 19.567-3.473 27.587-10.555l1.836-1.59C972.621 414.402 977.729 400.378 979 386c.346-9.329.192-18.669 0-28M249 846l.262 2.727c2.619 24.907 9.669 49.979 20.794 72.468 1.216 2.546 1.944 4.52 1.94 7.36-1.386 3.403-3.522 5.644-6.058 8.257l-1.432 1.522A433 433 0 0 1 261 942c-3-1-3-1-3.936-2.484l-.783-1.911-.882-2.131-.899-2.286-.932-2.313A111 111 0 0 1 248 912c-.527 9.068.629 17.766 1.933 26.725.392 2.755.744 5.511 1.067 8.275l.283 2.173c.449 6.05-2.259 9.826-5.658 14.639l-1.539 2.272a416 416 0 0 1-2.849 4.142A230 230 0 0 0 238 975h-2c-10.053-20.236-18.645-40.703-25.875-62.125l-1.12-3.302C206.541 902.12 204.64 894.669 203 887c-.26 7.249.503 14.209 1.562 21.375l.256 1.745c2.31 15.501 5.49 31.864 11.744 46.27C217 958 217 958 216 961c-12.303-26.717-22.485-53.069-29.631-81.636l-.459-1.829-.444-1.774c-.481-1.817-1.029-3.606-1.581-5.403-.787-2.987-1.07-5.299-.885-8.358q4.77-2.548 9.552-5.072a773 773 0 0 0 3.244-1.726q2.338-1.246 4.684-2.479l2.841-1.508c2.59-1.175 4.878-1.786 7.679-2.215l.445 3.172c3.872 26.533 9.627 52.231 20.555 76.828l.06-1.642C232.473 916.523 235.616 846 249 846m805 1c3.091 1.545 3.312 4.127 4.412 7.286l.9 2.714.933 2.8c5.979 18.688 8.685 37.731 9.317 57.262l.131 3.78q.159 4.578.307 9.158a1949 1949 0 0 0 8-21l.789-2.096c6.895-18.561 9.83-38.469 13.211-57.904 6.043 1.689 11.361 4.681 16.875 7.625l2.953 1.563A2459 2459 0 0 1 1119 862c-.494 7.276-1.832 14.036-3.75 21.062l-.821 3.057c-.801 2.963-1.614 5.922-2.429 8.881l-.625 2.327c-5.998 22.284-15.072 43.104-25.375 63.673-1.211-3.632-.687-4.473.66-7.969l1.149-3.119.62-1.679c4.297-11.76 7.077-23.516 9.133-35.858l.387-2.276c1.298-7.747 2.396-15.219 2.051-23.099l-.579 1.905-.812 2.669-.894 2.942q-.972 3.195-1.948 6.39c-1.952 6.379-1.952 6.379-3.841 12.778-4.356 14.841-10.238 29.144-16.676 43.191l-1.393 3.042c-2.405 5.176-4.934 10.18-7.857 15.083-3.847-3.681-7.153-7.529-10.312-11.812l-1.377-1.752c-5.082-6.916-3.438-13.336-2.245-21.422q.432-2.809.868-5.618c.957-6.512 1.238-12.817 1.066-19.396l-.579 1.709q-1.33 3.899-2.671 7.791l-.91 2.688c-1.902 5.504-4.079 10.683-6.84 15.812-4.252-4.123-8.136-8.513-12-13 .578-6.185 3.17-11.511 5.562-17.188 8.653-20.961 15.609-43.111 17.438-65.812"/><path fill="#784f1c" fill-rule="nonzero" d="M783.75 624.063c6.367 3.879 10.348 9.122 13.25 15.938.31 2.431.479 4.52.438 6.937l-.023 1.867c-.183 5.031-1.061 8.45-4.415 12.196l-1.145 1.382c-5.54 5.591-14.488 6.838-21.906 8.578-16.079 3.71-16.079 3.71-27.985 14.596a111 111 0 0 0-2.714 5.006l-.918 1.709c-1.506 2.861-2.74 5.541-3.332 8.729h-2c-7.877-17.769-9.847-34.583-2.816-53.122 5.641-12.544 14.309-19.72 26.816-24.878 7.89-2.631 19.217-2.456 26.75 1.062M554 627c9.45 5.271 16.853 15.715 20 26 3.811 16.581 3.034 32.898-5 48-1.91-1.91-2.616-3.082-3.699-5.484-4.896-10.555-8.332-16.915-19.613-21.141-5.57-1.943-11.23-3.187-17-4.375-8.283-1.729-15.387-3.572-20.688-10.625-3.874-5.946-3.819-12.538-3-19.375 2.92-7.197 9.382-13.607 16.246-17.164C532.237 619.5 544.061 621.781 554 627"/><path fill="#c8965c" fill-rule="nonzero" d="M1134 758q5.439 1.213 10.875 2.438l3.129.697 2.988.674 2.761.618C1156 763 1156 763 1158 764c3.897 23.582 6.189 46.686 6.13 70.603q-.005 3.889.007 7.778c.003 9.588-.272 19.068-1.137 28.619-3.498-.634-5.841-2.052-8.75-4.062l-2.422-1.661L1150 864l-.044-3.37c-.059-4.226-.136-8.451-.218-12.676a985 985 0 0 1-.084-5.431c-.33-25.221-5.345-48.981-13.012-72.929l-1.033-3.246-.938-2.906C1134 761 1134 761 1134 758m-966 0c-.677 4.741-1.856 9.174-3.25 13.75l-1.355 4.582a830 830 0 0 1-2.696 8.867c-7.851 25.918-8.459 51.95-8.699 78.801a939 939 0 0 1-4.875 3.5l-2.742 1.969C142 871 142 871 140 871c-3.446-30.696-2.223-60.63 2-91.188l.253-1.862c.241-1.749.494-3.496.747-5.243l.438-3.048c.552-2.612 1.042-4.465 2.562-6.659 1.924-.913 1.924-.913 4.246-1.484l2.537-.645 2.655-.621 2.642-.668c3.406-.843 6.399-1.582 9.92-1.582"/></svg>