<svg xmlns="http://www.w3.org/2000/svg" fill-rule="evenodd" stroke-linecap="round" stroke-linejoin="round" stroke-miterlimit="1.5" clip-rule="evenodd" viewBox="0 0 1300 1300"><path fill="none" d="M0 0h1300v1300H0z"/><path fill="#c8965c" stroke="#000" d="m141 759 286-25 85-124 303 16 69 95 285 40-17-136-104-194-81-234 97-116-61-23-116 88-160-48-55 3-7-30-244 70-117-88-71 29 102 160-168 349-31 104zm124 176 88-77 79-28 33 129 118 112h148l76-76 82-192 151 120-84 131-299 141-325-148z"/><path fill="#ead3a9" fill-rule="nonzero" d="M491 561c1.3 3.9.1 6.1-1.2 9.8l-.7 1.8-3.6 8.9c-9.6 22.3-8.8 55.6-.3 78.1 2.6 5.4 6 9.9 9.8 14.4l1.9 2.5c11.2 13.3 28 18 44.5 19.9 22 2.6 41.6 7.7 58.6 22.6l1.4 1.2c22.4 20 33.9 51.4 40.6 79.8l.5 2.3q.8 5 .7 10.4V825q-.2 27.5-3 54.8l-.6 6.3a402 402 0 0 1-4.5 36.6l-.5 2.5A39 39 0 0 1 623 948a48 48 0 0 1-8.1 4l-2.4 1-7.5 3-2.4 1a198 198 0 0 1-61.6 14l-3 .1c-27 1.2-52.2-3.3-73.1-21.4A105 105 0 0 1 433 893q11.5-9.8 24-18.6l11.5-8.2 2.3-1.6c7.6-5 7.6-5 13.2-11.6v-7c-16.5-1-38 20.4-49.9 30.6-4 3.4-4 3.4-6.1 3.4-6-20.2-6-20.2-8-29.5l-.3-1.8c-.7-3.5-.5-6.2.3-9.7q15-7.6 30.2-14l1.8-.8 8.7-3.6 3.2-1.3 2.9-1.1c2.2-1.2 3.2-1.9 4.2-4.2.2-3.1.2-3.1 0-6-2.7-2.7-4.6-4.3-8.5-4.4a40 40 0 0 0-15.4 4.7l-3.2 1.3A700 700 0 0 0 409 826l-3 1.5a410 410 0 0 0-60 36.5l-2.1 1.6c-20.3 15-39.7 31-57.6 48.9l-4.2 4.2q-8 8-15.1 16.9a75 75 0 0 1-6 6.4c-3-1-3-1-4-2.5l-.7-1.9-.9-2.1-.9-2.3-1-2.3A111 111 0 0 1 248 912c-.5 9 .6 17.8 2 26.7l1 8.3.3 2.2c.4 6-2.3 9.8-5.7 14.6l-1.5 2.3-2.9 4.1-3.2 4.8h-2a494 494 0 0 1-25.9-62.1l-1-3.3q-3.8-11.2-6.1-22.6c-.3 7.2.5 14.2 1.6 21.4l.2 1.7c2.3 15.5 5.5 31.9 11.8 46.3.4 1.6.4 1.6-.6 4.6a460 460 0 0 1-29.6-81.6l-.5-1.9-.4-1.7-1.6-5.4c-.8-3-1-5.3-.9-8.4a772 772 0 0 1 87.2-40.3l5.2-2a683 683 0 0 1 137-38.1c21.4-4 21.4-4 31.1-5 3.2-.8 4.5-2 6.5-4.6.5-2.1.5-2.1.3-4.2l-.2-2.2-.1-1.6c-10.2-6.4-31.1 1.1-47 1q-2.4.2-4.7.8a718 718 0 0 0-31 6.1l-3.2.7A606 606 0 0 0 224.9 824l-6 3-22 11.3-2.5 1.3q-4.8 2.4-9.3 5.2C183 846 183 846 181 846l-1-6-.5-3.5c-1.5-12-1.7-24-1.6-36.2v-14.5q0-5.4 1.1-10.8l.3-4.1.1-2.2.2-4.6.1-2.3.1-2c.2-1.8.2-1.8 1.2-4.8 5.5-2.8 11.8-3.6 17.8-4.9l1.8-.4a632 632 0 0 1 60-9.3l11.2-1.4 24-2.8 4.3-.4c37.6-4.3 75.8-3.8 113.6-2.5l2.5.1 10.8.5h1.9q2.3.3 4.7.3c2.4 0 2.4 0 4.2-1.5 2-2.7 1.7-4.5 1.2-7.7-2.3-3.3-3.7-4.7-7.6-5.7q-4.5-.7-9.2-1.1l-3.3-.4-7.9-.8c.4-12.3 3.2-24 6-36l.6-2.6c2.9-12.4 7-23.8 12.4-35.4l1-2a177 177 0 0 1 30-46l1.4-1.5 5.6-6.1a189 189 0 0 0 8.6-10q6.8-8.4 14.4-16.4"/><path fill="#c8965c" fill-rule="nonzero" d="M181 755c9.7-14.8 242.3-34.6 230-22v32c.7.3-223 78-226 79.8-2 1.2-2 1.2-4 1.2-7.7 3.4-7.5-83.2 0-91m230 24c0 .7 1.1 4.4 1.2 5.1.2 3.2 4.1 37.6 4.8 37.9l-1.6.8C381.3 839.3 271.7 929.6 267 935.6a75 75 0 0 1-6 6.4c-3-1-3-1-4-2.5-.3-1-7.7-21-9-27.5-.5 9 3.1 36 3.3 37.2.4 6-12.2 24.2-13.3 25.8h-2a839 839 0 0 1-33-88c-.3 7.2 7.3 55 13.6 69.4.4 1.6.4 1.6-.6 4.6-16.8-20.6-37-90.7-33-99a772 772 0 0 1 87.2-40.3l5.2-2c74-26.8 63.6-25.4 135.6-40.7"/><path fill="#784f1c" fill-rule="nonzero" d="M282.4 43.8h3c27.7 0 52.3 15.5 72 33.9l4.2 3.7c7.5 6.3 14.2 13.4 21.1 20.3q9.3 9.7 19.3 18.3l1.5 1.2c4.5 3.9 9 7.5 14.5 9.8l1.6-1.3 6.7-5.3 3.6-3c26.2-21.2 63-45.4 97.1-51.4a42 42 0 0 1-8.4 8.6q-16.4 13-31.6 27.4l1.4-.7a413 413 0 0 1 73.2-26.7c35.8-10.6 76-16 113.4-16.6h3.2q22-.4 44 .9h2l5.8.5 3.3.2c2.5.4 3.8.8 5.7 2.4l-1.5.3A298 298 0 0 0 676 88l3.2-.2q20.2-1.2 40.4-1h7.5a249 249 0 0 1 69.3 7.1c27.7 6 57.3 17.2 80.7 33.3q3.7 2.4 7.9 3.8c6.5-4 12-8.5 17.6-13.7l3-2.7q10.1-8.8 19.4-18.6c13.7-13.9 13.7-13.9 21-20l3-2.6c23.6-20.4 49.5-31.2 81-29.4a65 65 0 0 1 38 21l2 1.9a116 116 0 0 1 23 41.1l.8 2.3a184 184 0 0 1-6.8 142.2 117 117 0 0 1-19.9 29.2q-2.8 3-5.5 6.4A115 115 0 0 1 1018 318h-2l4.4 14 1.5 5.1 1 2.6.6 2.2c5.2 7.4 16.7 10.5 24.8 14.1l5.2 2.4 3.1 1.4c2.4 1.2 2.4 1.2 3.4 3.2l-30 2c18.6 43.3 40 82.2 67.8 120.3a534 534 0 0 1 14.9 21.7l4.3 6.5a638 638 0 0 1 42 72.4l3.2 6.5a347 347 0 0 1 19.8 51.1l.9 2.8a79 79 0 0 1 3.1 15.7 14 14 0 0 1-3.7-5.7c-8.4-18.7-19.5-35-31.8-51.2l-6.5-9.1 1.4 2.3c26.1 46.1 44.3 109.6 42.6 162.7l1.8.5q10.4 3.1 20.3 7.4l1.6.8A889 889 0 0 1 1265 795c-4 1.4-6.7 0-10.5-1.5l-2.3-.8-4.9-1.7-10-3.6-5.1-1.9q-10.4-3.7-20.8-7.1l-2.8-1q-9.1-3-18.6-5.4v1.6c-1 32.5-4.8 65.1-15 96l-.9 2.8-.8 2.4c-.4 2.8.2 4 1.7 6.2l5.5 4.2 3.3 2.4 1.6 1.3q11.7 8.6 22 18.7l4.5 4q9 8.1 17.3 16.5l2 2 2 1.8 1.6 1.7c1.2 1.4 1.2 1.4 1.2 3.4a44 44 0 0 1-9.5-6.2c-12.4-9.8-25.6-18.6-38.7-27.4l-3-2q-8.5-6-17.8-10.4l-.4 2.2c-.6 3-1.6 5.4-2.9 8.1l-1.3 3-1.5 3-1.4 3.1-3.5 7.6h-1l1.8-14.1a102 102 0 0 0 1.2-18.9l-11-7-.2 3.1c-.9 6.6-3 12.8-4.9 19l-.6 2.1c-13 42.5-33.5 82-61.3 116.8l-1.5 1.9a395 395 0 0 1-22.2 25.7l-5.4 6q-7 7.8-14.5 15l-2.4 2.5a271 271 0 0 1-15 13.9l-3.5 3a443 443 0 0 1-28.5 23l-2 1.4a456 456 0 0 1-57 36.6l-2-1 1.9-1.5A267 267 0 0 0 963 1112l2.2-2.6a369 369 0 0 0 37.8-56.4l-1.3 1.9c-8.3 12-18.8 22.2-29 32.6l-2 2Q964 1096 957 1102l-3 2.7a523 523 0 0 1-88 59.3l-2.7 1.5a861 861 0 0 1-101.4 47.7l-2.1 1-6.1 2.3-1.9.7a49 49 0 0 1-9.8 2.8 66 66 0 0 1 7.2-5c12-7 22.9-15.3 33.8-24l2-1.5c8.6-7 16.4-14.7 24.3-22.6l1.6-1.5q10.1-10.1 19.1-21.4l4-5-2.4 2a255 255 0 0 1-35.9 22l-5.2 2.9q-15.4 8.4-31 16.4c-29.7 15.3-60.2 31.8-85.5 53.7l-2.6 2.2A97 97 0 0 0 652 1260a130 130 0 0 1-8.2-8.8 211 211 0 0 0-49.9-39.5l-2.7-1.7a948 948 0 0 0-62.4-34.8q-16.3-8.5-32.3-17.8l-7.1-4A107 107 0 0 1 468 1139q4.7 6.2 10 12l1.1 1.3A279 279 0 0 0 516 1188l3.3 2.6a288 288 0 0 0 33.5 23.8 32 32 0 0 1 7.2 5.6 231 231 0 0 1-22.8-7.9l-1.8-.7c-24.3-9.6-48-20.8-71.4-32.4l-1.6-.8A702 702 0 0 1 396 1140l-1.5-1a384 384 0 0 1-53-40.8l-6.3-5.5q-6.3-5.4-12.1-11.5l-2.1-2q-8.1-8.1-15-17.2l-1.9-2.4-4.1-5.6a285 285 0 0 0 29 45l1.3 1.6q7.4 9.3 15.5 18l4 4.4c8 9 16.7 16.5 26.2 24l-2 1a375 375 0 0 1-54-34.5l-6.3-4.7Q300 1098.3 287 1087l-1.4-1.2-8.6-7.8-2.7-2.4q-9-8.2-17.6-16.8l-2-2a228 228 0 0 1-11.1-12l-5.8-6.4c-36-40-61.4-87.5-77.9-138.5l-.8-2.6c-1.9-6-3-12-4.1-18.3l-11 6a337 337 0 0 0 2.3 20.8q.8 5 .7 10.2a38 38 0 0 1-5.3-8.8l-1.2-2.7-1.2-2.8-1.2-2.8-3.1-6.9a22 22 0 0 0-10.1 4.2l-1.5 1-4.7 3.1-3.2 2.2-9.5 6.5-2.4 1.7A804 804 0 0 0 68 937l-2-1q4.8-6 10.6-11.1 6.8-6 13.1-12.7c6.8-6.9 14.2-13 21.7-19.2l2.3-1.8q7.5-6.3 15.3-12.2-1.7-8.1-3.8-16.1c-6.6-26.2-11.5-52-11.3-79.1V780l.1-9-2.1.8q-8.5 3.1-17.2 5.6-12 3.5-23.7 7.6l-2.7 1-9.1 3-3 1q-8.1 2.9-16.1 6.4c-2.1.6-2.1.6-5.1-.4l8.8-4.4 11.9-6A476 476 0 0 1 92 768.8l2.4-1 7-3 2-.8q5.1-2.1 10.5-3.1v-1.8a233 233 0 0 1 3.8-40.8l.4-2q2.6-14.5 6.3-28.6l1.9-7.5c7-28.5 17.8-55.9 30.6-82.3-15.8 20-29 41-40 64-1.2-3.5-.8-5.6.3-9l.9-3.1 1-3.3.6-1.8a432 432 0 0 1 39.7-89.3l4-7A923 923 0 0 1 215 471a451 451 0 0 0 31.8-50.4l3.1-5.8q7.4-13.8 13.5-28.2l1.9-4.2L273 364h-2.7q-14.2.1-28.3-1c2.7-3.3 6.1-4.6 10-6.3l4-2 6.6-2.9c9.5-3.7 9.5-3.7 16.2-10.8l1.2-4 1.5-4.2 1.3-4.1.7-2.1.6-2 .6-2c.5-1.9.5-1.9-.7-4.6-1.9-1.3-1.9-1.3-4.2-2.3l-2.7-1.4-2.9-1.4A133 133 0 0 1 222 265l-1-1.7a167 167 0 0 1-20-50.3l-.5-2.3A177 177 0 0 1 202 132l.8-3c6-23.3 14.8-46 31.2-64l2-2.2q11.3-12 27-16.8l1.7-.5a60 60 0 0 1 17.7-1.7M255 82l-3 4-2 2.7c-21.8 29.2-29.1 69.6-24 105.3l2 11 .6 3c2 8.2 5.7 15.6 9.4 23l1.5 3a103 103 0 0 0 21.5 28q-6.7-4.9-13-10c4.9 11.8 18.1 21.7 29.5 26.6 8.4 3.4 8.4 3.4 17.3 4.5l3.2-.1c3-8.6 3.5-16.5 3.4-25.5l.1-6.5c0-14.2-3.2-27-8.6-40l-1.2-2.8q-6.6-15.1-16.7-28.2a69 69 0 0 1 40 16l2 1.6 4 3.4c-.4-10-2.7-19.4-5-29l-.5-2c-7.3-30.7-22-65.7-50-83l-1.5-1 4.5-.1 2.5-.1c14.8 1 27.7 9.7 37.8 20l3.1 2.9c16.5 14.8 26.4 38.8 33.1 59.3l.8 2.5c4 12.5 4.7 24.9 4.8 37.9v2.3c0 8.2-.4 16-2.4 24l-.5 2A49 49 0 0 1 338 254l-2 2.7-3.8 4.6c-1.4 1.6-1.4 1.6-1.2 3.7l2-.4a98 98 0 0 1 21.7-1.8h3.2c22 0 42 12.4 57.3 27.4A107 107 0 0 1 446 382l-.4-2c-5.6-24-13-46.6-28.6-66l-1.4-1.7c-11-13.6-27-29.5-45.3-31.5-9.9-.8-17.5.5-26.3 5.2l-2.5 1.3a69 69 0 0 0-31.7 39 17 17 0 0 0-.8 6.7l9-2 1.9-.5a78 78 0 0 1 20-1.8h3.2c21 0 40.5 9.5 55.9 23.3l2.4 2.1a112 112 0 0 1 32.7 73q.1 10.5-.1 20.9l-1.4-1.6a45 45 0 0 0-10.3-9.8L420 435c-7-4-18.3-3.1-26-1.4l-2.6.8c-6.2 1.8-12.2 1.8-18.6 1.9h-3a41 41 0 0 1-28.9-11.2c-16.7-17.1-18.2-39.5-18-62l.1-5.2a70 70 0 0 0-16.5 1.5l-2.2.4-5.3 1.1q-4.5 11-8 22.2c-13.4 41.4-34.4 77.2-57.8 113.6a1210 1210 0 0 0-22.7 36.7l-4.7 7.8A792 792 0 0 0 159 633l1 2 1-1.4a457 457 0 0 1 40-46.8l2-2 2-1.8 1.6-1.7c1.4-1.3 1.4-1.3 3.4-2.3l-4 7.5c-25.8 45.3-42.2 94.4-54.6 144.8l-.8 3c-1.2 5-1.9 9.5-1.6 14.7l4-.7 4.3-.7c11.3-1.7 11.3-1.7 20.6-7.6q5.1-7.5 8.1-16 0 3-1 5.8a28 28 0 0 0-1 9.2q8-.5 15.7-2.7c21.5-5.5 43.3-9 65.2-12.2l5.3-.8c30.6-4.5 60.6-7.5 91.5-7.4h22.4q8-.1 15.9 1.1h10v-3.3c-.6-40.3-.6-40.3 3-55.7l.6-2.7a200 200 0 0 1 44.2-87.3q15.6-18.4 26.2-40l1.3-2.6c12.7-24.7 20.9-51.5 29.5-78l2.4-7.3.6-1.7C535 385.9 560 340.4 601 303c0 2.2-2 4-3.2 5.7q-6.2 8.9-11.4 18.4l-1 1.9a29 29 0 0 0-3.4 10 96 96 0 0 0 9.1-10.2c12.5-15.4 29.3-26 46.9-34.8l1 1-2 2.4a451 451 0 0 0-63.6 97l-1 2-3 6.3-1 1.9q-3 6.6-5.4 13.4c2.7-21.7 5.6-43.4 16-63l-1-2a280 280 0 0 0-32 64l-1.6 4.4q-7.2 20.9-12.3 42.4-3.5 14.2-8.3 28l-.8 2c-9.7 27.9-20.4 55-40.8 76.8q-3.6 4-6.8 8-3.6 4.8-7.9 8.9-6.1 6.1-11.4 13l-3.2 4.1A182 182 0 0 0 419 672l-.7 2.9c-5.6 20.8-5.6 20.8-7.3 42.1l2 .2 9.2 1 3.2.3c8.7 1 8.7 1 11.8 4 2.2 3 2.5 4.7 1.8 8.5-1.2 1.7-1.2 1.7-3 3-2.4.2-2.4.2-5.4 0H427l-2-.2-11.3-.5h-2.6A774 774 0 0 0 298 736l-2.5.3-31.2 3.8-16 1.9a564 564 0 0 0-67.3 13c-.9 2.6-1.2 4.2-1.3 6.8v2.3l-.2 2.3-.2 4.5-.1 2c-.2 2.1-.2 2.1-.7 4.4q-.8 5.2-.7 10.4v12.1c-.1 23.3-.1 23.3 3.2 46.2a58 58 0 0 0 13.4-6.1q9.7-5.6 19.8-10.5l11.1-5.6q23.3-12 47.7-21.8l3-1.2a551 551 0 0 1 86-27.8l1.7-.4q22.9-5.2 46.2-8.3l8.3-1.4c23.5-4.4 23.5-4.4 31.8 1.1l.2 3.8.2 2c-.6 3.4-1.6 4.3-4.4 6.2q-5.4 1.3-11 1.8l-7 1-2 .3a625 625 0 0 0-107 25.3l-6.2 2A808 808 0 0 0 252 829l-1.7.7c-15.7 6.6-31 14-46.3 21.4l-2.7 1.3-7.4 3.7-2.3 1-2.1 1.1-1.8 1q-2.5 1.2-4.7 2.8c4.2 34.7 18.5 67.6 33 99 1.3-3.9.1-6.3-1.1-10l-1.4-4.4-.8-2.3a230 230 0 0 1-8-35.4l-.5-3.5q-1.5-9.2-1.2-18.4l.7 3.3c6.7 29.4 18.4 58 32.3 84.7 3.4-1.1 3.7-1.6 5.4-4.5l1.3-2.1 1.4-2.3 2.6-4.3 1.2-2 2.2-3.3c3.1-5.3.2-15-.6-20.8-1.1-8-2-15.6-1.5-23.7l.7 2.8c2.2 9.2 5.3 17.6 9.3 26.2 1.8.5 1.8.5 4 0a62 62 0 0 0 5.3-5.5l1.4-1.5 5.8-6.8q7.3-8.3 15.3-16.1l4.4-4.5A227 227 0 0 1 314 889l3.4-2.9q12.4-10.6 25.6-20.1l2-1.5c19-13.9 39.2-25.6 60-36.5l3-1.5a466 466 0 0 1 34.6-16.4l3.8-1.7C459 803 459 803 466 804a22 22 0 0 1 5 4c.5 5.4.5 5.4-1.7 8a27 27 0 0 1-8 4.6l-1.6.7-3.5 1.4-9.5 4-2 .9a559 559 0 0 0-95 52.3l-1.5 1q-15 10.2-29.3 21.6l-1.7 1.4a430 430 0 0 0-23.6 19.8l-4.3 3.8q-8.4 7.4-16.3 15.4l-2.6 2.7-6.4 6.4c1 6 3.6 10.8 6.3 16.1l.8 1.6A301 301 0 0 0 299 1014l1.2 1.6A296 296 0 0 0 332 1052l7.7 7.8q8.9 9.2 19 17l5.6 4.8c16.5 14 34.7 25.8 53.2 37.2l1.5.9 4.4 2.7 2.5 1.5c2 1.3 2 1.3 4.1 1.1-1.4-3-3-5.3-5.1-7.9-16.8-21.4-33.9-61.4-33.9-89.1l1.5 3a196 196 0 0 0 19.5 29l1.4 1.8c20.8 26 49.7 43.3 79 58.3q8 4.2 16 8.7 14.1 7.6 28.5 14.6a660 660 0 0 1 55.4 30.2l2 1.2c2.8 1.9 5.4 3.6 7.7 6.2l2-1c-9.5-9.8-19-19-30-27l-2.1-1.6-19.6-14q-13.3-9.3-25.3-20.4l-1.5-1.3A108 108 0 0 1 501 1080l1.8 2a137 137 0 0 0 19.2 18l2.3 2c10.6 8.8 22.6 15.8 34.5 22.8 26.4 15.7 52.6 33.3 71.2 58.2l1.2 1.5A169 169 0 0 1 651 1221a31 31 0 0 0 3.4-6.3A153 153 0 0 1 689 1164l1.3-1.2A182 182 0 0 1 718 1141l2-1.4q12.8-8.5 26-16a248 248 0 0 0 42-30.6l1.7-1.5c6.8-6.1 6.8-6.1 13.3-12.5-5.3 10-10.9 19.2-18 28l-1.8 2.3q-6 7-13.2 12.7l-1.6 1.3a305 305 0 0 1-23.6 17.8A311 311 0 0 0 697 1181l1 2 1.2-1a104 104 0 0 1 15.5-11.2l2.8-1.7a498 498 0 0 1 38.8-21.3q6.7-3.3 13.2-6.8l14.9-7.7c30-14.9 60.3-30 85.6-52.3l1.5-1.3c16.5-14.5 29-31.3 39.5-50.7a233 233 0 0 1-12 45l-1 2.7a155 155 0 0 1-26 47.3l2 1q17.5-9.7 34-21l2-1.4q33.5-23 62.3-51.8l2-2a307 307 0 0 0 58.9-83.1 178 178 0 0 1 5.8-10.7c-1.3-3-2.8-5.1-5-7.5l-1.8-2-2-2-2-2.1q-13.5-14-28.6-26.1l-5.4-4.5A493 493 0 0 0 921 860l-2-1.1a581 581 0 0 0-77-38l-2.7-1-2.3-1a13 13 0 0 1-5-3.9c-.5-4.1-.7-6 1.6-9.4 3.2-2.1 5.7-2 9.4-1.6q5.4 1.6 10.6 3.6l3.2 1.2A445 445 0 0 1 896 827l3 1.5a400 400 0 0 1 48 28.5l1.6 1.1q21 14.6 40.6 31.4l4.2 3.4a239 239 0 0 1 20.4 18.5l5.2 5.2q9.4 9.3 17.5 20l1.3 1.6 1 1.5q1.9 2 4.2 3.3 6.6-13.5 11-28c.2 7.6-.3 14.7-1.5 22.2L1051 948l-.3 2.2c-.4 5.8 2 9 5.5 13.5l1.5 2q3.8 5 8.3 9.3a309 309 0 0 0 17-36l1.1-2.8a345 345 0 0 0 14.3-45c.6-2.2.6-2.2 1.6-4.2.4 8.6-1 16.9-2.4 25.4l-.4 2.3q-3 18-9.4 35.2l-1.1 3.1-1 2.7c-1 2.4-1 2.4.3 5.3l1.5-3.2 1-2 2.2-4.7 5.1-10.9c11-22.6 23.8-52.8 23.2-78.2a880 880 0 0 0-126-54.3l-2.2-.8a596 596 0 0 0-30-9.4l-4.7-1.4c-24.6-7.1-49.9-11.6-75.1-16.1l-5.1-1q-10.4-2-20.9-3a14 14 0 0 1-3-11c4.7-4.3 8.6-4.5 14.8-4.3 38 2.6 76 11.5 112.2 23.3l2.1.7a720 720 0 0 1 99.4 40.5l6.2 3.1a948 948 0 0 1 25.4 13.1l2.6 1.4 2.3 1.2c2.1 1.1 2.1 1.1 5 2 3.8-29.8 3.5-61.2 0-91a778 778 0 0 0-144-21l-2.1-.1c-14-1-28-1-42.1-1h-9.1q-21.3-.1-42.4 1c-15.4.7-15.4.7-18.1-1.2-2-2.7-1.7-4.5-1.2-7.7q1.8-3.2 5-5 6.5-1.3 13.2-1.5l2-.1 8.5-.5 6.2-.4 2-.1q3.8-.2 7.4-1c4.1-.7 8.2-.6 12.4-.6H935q26.5-.2 52.9 2.2l2.1.2a818 818 0 0 1 64.9 8.8l2.3.4c35.7 6.3 35.7 6.3 50.7 10.2 3.8 1 7 1.7 11 1.4l-.4-2.3-.6-3-.6-3c-.4-2.7-.4-2.7-.4-5.7l.7 1.4 3.4 6.4 1 2.2c2.4 4.4 4.3 6.9 9 8.5l1.9.5 1.8.6 5.2 1.5 1.8.5q6 1.7 12.2 2.4-1.8-13.6-5.3-26.9l-1.6-6.1c-11.8-47-28.2-97.9-56.1-138q6.6 5.5 12.5 11.7c1.4 1.5 1.4 1.5 3.5 1.3v2l2.6 2a175 175 0 0 1 31.4 38c1.3-3.9.4-5-1.2-8.6l-.8-1.7-2.5-5.5-1.8-4a630 630 0 0 0-33.7-64.6l-3-5-11.9-19.5-6.8-11.3q-8.1-13.6-17-27A668 668 0 0 1 1044 456l-1.7-3q-24.6-42.2-37.7-89.3c-.5-1.7-.5-1.7-1.6-2.7q-4.3-.9-8.7-1.6l-2.4-.4-2.4-.4-2.2-.3q-4.1-.4-8.3-.3v2.3c.8 43.5.8 43.5-14.4 61.2a43 43 0 0 1-29.3 15h-9c-8.2-.2-15.6-1.6-23.5-3.6s-14-1.6-21.3 2.4A91 91 0 0 0 869 446l-.1-11.8v-3.3a86 86 0 0 1 4.7-29.5l.8-2.3A128 128 0 0 1 894 362l1.9-2.4A87 87 0 0 1 949 329q6-.2 12.1-.2h3.3c10.2 0 20.1 1 29.6 5.2a62 62 0 0 0-17-34l-1.6-1.9A68 68 0 0 0 957 285l-2.5-1.4a39 39 0 0 0-28.8-1.3A100 100 0 0 0 894 304l-1.8 1.6c-16 14.5-26.1 38-31.6 58.4l-1.6 5.5a38 38 0 0 0-2 12.5h-2c-.3-13.4-.3-26 3-39l.4-1.8a107 107 0 0 1 28.3-49.9l3.2-3.4c12.3-13 32.5-24.4 50.5-25.2 11.2-.3 21.8.4 32.6 3.3l-1-1.4q-5.4-7-10.3-14.2l-3.1-4.3c-7.7-10.7-7.1-25.3-7-37.9v-2.4c0-11.7.7-22.6 4.4-33.8l.7-2.4c10.2-32.6 28.7-64 59.7-80.4A44 44 0 0 1 1038 86l-1.7 1c-30.2 19.6-44.8 58.1-52.3 92-2.4 11.4-2.4 11.4-3 23l1.8-2c13-12.8 28-17 45.2-21l-2 2.5a147 147 0 0 0-16 27.5l-1.2 2.5q-1.6 3.8-2.8 7.5l-.6 1.9a105 105 0 0 0-4.9 34.2v2a56 56 0 0 0 4.5 25.9c16.3-.5 30-9.4 41-20.8l2-2.2-1-2-2 1 1.7-1.7A119 119 0 0 0 1075 201l.6-2.4c1.7-8.4 1.8-16.8 1.8-25.4v-2.4c-.1-31.6-8.6-64.8-30.4-88.8a42 42 0 0 0-11-8.3l-2-.8a54 54 0 0 0-39.6.7c-21.7 9.1-38.3 27.1-54.5 43.5A236 236 0 0 1 924 132l-2.6 2.2c-13.9 11.3-13.9 11.3-21.4 13.8 1.4 4 3 6.4 5.9 9.5A133 133 0 0 1 934 215l-1.9-2.7A170 170 0 0 0 915 191l-1.5-1.6C866.2 139.9 794.3 117.8 728 110l-2.2-.3q-10-1-20-.9h-18.1c-13 0-25.8 0-38.7 2.2l-9.1.9c-13.4 1.2-26.6 3.2-39.9 5.1a629 629 0 0 1 34.4-19.9l1.8-1Q648.4 89.8 661 84v-1q-11 1.3-21.7 3.6l-2 .4a578 578 0 0 0-63.5 16.4l-5.8 1.9a607 607 0 0 0-104 43.5l-11.5 5.9Q443 159.4 434 165c4.6-6.8 10.3-12.7 15.9-18.7l7-7.7A166 166 0 0 1 467 128c-3.3 0-4.1.4-6.8 2l-2.3 1.5-2.3 1.4-2.5 1.6a198 198 0 0 0-17.6 12.4l-4.7 3.5a238 238 0 0 0-20.4 17.3q-3 2.9-6.3 5.6A251 251 0 0 0 367 216a275 275 0 0 1 16-37l1-1.8c4.7-9 10.4-17 17-25 1.1-1.3 1.1-1.3 2-3.2l-2-1a147 147 0 0 1-33.5-25.7l-8.5-7.7a68 68 0 0 1-7.3-7.4c-14.6-17-37.5-35.5-60.7-37.4-14.4-.7-25.8 1.1-36 12.3"/><path fill="#784f1c" fill-rule="nonzero" d="M599.2 587.6c13.4 4.8 27.4 9.5 41.8 9.6h2c22 .2 40-2.6 60.9-10q12.4-4.5 25.2-7.8l2.7-.7c15.8-4 34.8-5.5 50.2.3l3 1a60 60 0 0 1 33.2 29.3 63 63 0 0 1 1.5 47 67 67 0 0 1-36.1 36.3c-8.4 3.3-17 4.3-25.9 5.3-15.7 1.9-29 5.1-42.7 13.1l-2.6 1.5C684.5 730 671.6 762.8 663 793l-.6 2c-3.4 11.4-2.7 23.2-2.4 35l.1 3.5c.3 14.2.3 14.2 1.6 28.3q.8 6.7 1 13.3 1 15.4 2.8 30.9l.4 3.1c1.8 20.2 1.8 20.2 12.5 36.8 30.7 20.2 81 30.3 117.1 22.8l6.5-1.7 2.8-.6A71 71 0 0 0 841 945l2.2-2.2c10.5-10.9 24.6-32.8 24.8-48.3-1.5-3.8-4.3-5.6-7.5-8l-2-1.6q-9.7-7.4-19.5-14c-21.3-15-21.3-15-22.5-21.7.5-2.2.5-2.2 2.5-4.2 6.1.3 10.2 1.8 15.3 5.2l2 1.3q19.2 12.6 36.7 27.5 2-3.9 3.2-8l.7-2.4.6-2.4.6-2.3L882 849h1l-.3 3.2c-2.9 21.6-2.9 21.6 3.5 41.3q6.5 7.3 14.6 13c5.3 4.1 9.1 9.2 13.2 14.5l2.8 3.2a330 330 0 0 1 38.8 57.5l1.2 2.3c2.2 4 4 7.7 5.2 12a68 68 0 0 1-9.6-11.4q-7-9.4-14.4-18.6l-1.2-1.5a626 626 0 0 0-31.2-35.8l-5.2-5.6-3.5-3.9-1.7-1.8-1.6-1.7-1.4-1.5c-1.2-1.3-1.2-1.3-3.2-2.2v-2l-1.8-.8c-2.3-1.2-4-2.6-6-4.3l-1.8-1.7-1.4-1.2-.1 1.5c-3 25.8-15.2 54-35.6 70.9a72 72 0 0 1-15.6 10c-6.5 3-9.1 5.5-11.8 12l-3.8 10.7q-3 7.6-6.7 15l-1.3 2.9a103 103 0 0 1-18.9 26.7l-2.4 2.6A123 123 0 0 1 741 1083l-2.3 1a166 166 0 0 1-32.3 12.2l-2.2.5c-4.2 1-8 1.5-12.2 1.3q4.5-3.5 9.4-6.1l1.6-.9 4.8-2.7 3.2-1.8 8-4.5-3 .8-10.9 2.7-3.9 1q-12.4 2.9-25.2 4.3l-5.9.8a148 148 0 0 1-49.3-1.4l-2.2-.3q-12.9-2.3-25.6-5.6c-3.4-1-3.4-1-7-1.3l1.7 1 7.5 4.3 2.6 1.5 12.2 7.2c-16 5-42-10.2-55.9-17.3q-13-6.8-24.1-16.7l-1.8-1.6a135 135 0 0 1-40.5-63.6c-1.8-6.1-1.8-6.1-6.2-10.6l-6.2-2.8c-5.8-2.3-10.5-6.5-15.3-10.4l-2.2-1.7c-19.2-16-29.2-42.4-33.8-66.3v-4h-2l-1 3-3.2 2.8a207 207 0 0 0-24 24q-3 3.7-6.5 7.2a328 328 0 0 0-17.3 20l-3.3 4a466 466 0 0 0-28.7 39l-1-2c17.2-32.5 36-63.3 61.4-90.2q3.9-4.2 7.5-8.7c1.1-1.1 1.1-1.1 3.1-1.1v-2c1.7-1.7 1.7-1.7 3.9-3.5 4.2-3 4.2-3 6.3-7.3v-19.4l-.1-6-.1-14.8 2 1 .3 1.6 1.5 7.3.5 2.6q1.4 7.4 4.1 14.5.8 2.8.6 6l1.5-1.3C472 844.2 472 844.2 484 845c1 1 1 1 1.4 4.2-.1 4.4-2.4 6.8-5.4 9.8q-4 3.2-8.2 6l-4.8 3.5-2.5 1.7-12 8.6-2.3 1.6q-8.3 6-16.2 12.6c5.1 24.3 19.3 49.2 40.2 63.1A96 96 0 0 0 504 968l2.2.5a91 91 0 0 0 20.8 1.8h1.8c29.1-.3 73.6-5.4 96.5-25.5 6.7-7 8.4-17.6 9.8-27l.5-3.1q2.7-19.8 4-39.8l1-10.6c3.8-40.2 3.8-40.2-3.6-79.3l-1.8-5.5A143 143 0 0 0 603 723l-2-2.1c-6.3-6-13.4-10-21-13.9l-2.9-1.5c-12-5.5-25.5-7.2-38.5-8.5a66 66 0 0 1-45-22.7A61 61 0 0 1 480 639l-.3-2.8a59 59 0 0 1 13.9-39.8c28.7-30.6 70.5-21.5 105.6-8.8"/><path fill="#ead3a9" fill-rule="nonzero" d="m808 558 10.4 10.8 1.4 1.6 9.5 10.6 3.7 4.2c32 34.8 58.7 83.2 58 131.8l-2 .2-9.2 1-3.2.3c-6.4.6-6.4.6-11.8 4-2.2 3-2.5 4.7-1.8 8.5 1.1 1.8 1.1 1.8 3 3 6 .8 12.5 0 18.7-.2q22.2-1.1 44.5-1h1.8c38.8 0 76.6 3.5 115 8.2l2.5.3c24.7 3 49.5 7 73.5 13.7 3.5 29.8 3.8 61.2 0 91q-6-2.3-11.7-5.5l-4-2.2-2-1q-21-11.4-42.3-21.3l-2.9-1.3a761 761 0 0 0-91.2-34.1l-5.3-1.7q-13.2-4-26.7-6.8l-2.3-.6C913 767 892 762.5 871 761l-2-.1c-7.7-.6-7.7-.6-14.8 2.1-2.5 1.8-2.5 1.8-2.4 4.7.2 3.7 1.2 5.3 3.2 8.3l3 .3q13 1.4 26 4.2l14.6 2.8c73 12.4 143.4 39.4 220.4 78.7-.5 7.3-1.8 14-3.7 21l-.9 3.1-2.4 8.9-.6 2.3c-6 22.3-15.1 43.1-25.4 63.7-1.2-3.6-.7-4.5.7-8l1.1-3 .6-1.8c4.3-11.7 7.1-23.5 9.2-35.8l.3-2.3a109 109 0 0 0 2.1-23.1l-.6 2-.8 2.6-.9 3-2 6.3-3.8 12.8a321 321 0 0 1-16.7 43.2l-1.3 3q-3.6 7.8-7.9 15.1a90 90 0 0 1-10.3-11.8l-1.4-1.8c-5-6.9-3.4-13.3-2.2-21.4l.8-5.6q1.4-9.6 1.1-19.4l-.6 1.7-2.6 7.8-1 2.7q-2.7 8.2-6.8 15.8a122 122 0 0 1-8.8-9.6q-10.2-11.9-21.3-22.8l-1.6-1.5q-9-9.1-18.9-17.2-3.8-3-7.4-6.2a347 347 0 0 0-28-21.7l-1.8-1.3L944 855l-1.8-1.2c-50-35-50-35-106.2-49.8-2.6 1.4-2.6 1.4-4 4q-.4 3.4 0 7c4.6 4.4 10 6.3 15.9 8.6Q866.3 831 884 840a291 291 0 0 1-4.4 22.8l-.7 2.7A73 73 0 0 1 874 880q-5.5-3-10-7.3-8.3-6.9-17.1-13l-2.5-1.7c-11.7-8.6-11.7-8.6-25.4-12-1.3 1.1-1.3 1.1-1.1 4 1 6 6.4 9.5 11.1 13l11.7 8q14.9 10 28.3 22a51 51 0 0 1-4.6 16l-1 2.6c-5 11.5-11 22-19.4 31.4l-1.2 1.4a85 85 0 0 1-58.9 26.8l-9.5.2h-1.8c-18.1 0-36.3-2.9-53.6-8.4l-3-1-8.9-2.8-3.5-1.1c-14.1-4.6-26.4-9.3-33.6-23.1-2.6-7-3.7-14.1-4.6-21.5l-.3-3.2-.8-6.3-.9-7.9a324 324 0 0 1-2-25.6q-.2-5.2-.9-10.3c-1.2-8.9-1.1-17.9-1.4-26.8l-.2-6.5A118 118 0 0 1 664 786l.8-2.5C674 754 688.9 724 717 708.8c14-7.4 28-11 43.8-12.5a69 69 0 0 0 49.2-24.7c14-18.9 15.2-43.7 12.5-66.4q-1-6.2-2.5-12.2l-.5-2.1q-3.9-14.4-10.1-27.8C808 560 808 560 808 558"/><path fill="#c8965c" fill-rule="nonzero" d="M599.2 587.6c13.4 4.8 27.4 9.5 41.8 9.6h2c22 .2 40-2.6 60.9-10q12.4-4.5 25.2-7.8l2.7-.7c15.8-4 34.8-5.5 50.2.3l3 1a60 60 0 0 1 33.2 29.3 63 63 0 0 1 1.5 47 67 67 0 0 1-36.1 36.3c-8.4 3.3-17 4.3-25.9 5.3-15.7 1.9-29 5.1-42.7 13.1l-2.6 1.5c-28.6 18-43 53.4-50.5 85L660 807l-2-1-.1-3q-1.2-27.1-3.4-54.1l-.2-2A353 353 0 0 0 651 721c-2.5 10.7-2.9 21.6-3.6 32.6L646 776l-.2 2.4a991 991 0 0 0-1.4 33.7v4.7L644 828h-1v-1.8c-.5-36.5-13.7-76.8-40-103.2l-2-2.1c-6.3-6-13.4-10-21-13.9l-2.9-1.5c-12-5.5-25.5-7.2-38.5-8.5a66 66 0 0 1-45-22.7A61 61 0 0 1 480 639l-.3-2.8a59 59 0 0 1 13.9-39.8c28.7-30.6 70.5-21.5 105.6-8.8"/><path fill="#ead3a9" fill-rule="nonzero" d="m278 940 1 1.7a379 379 0 0 0 54.8 79.9l3.6 4q7.7 8.9 16.2 17.2 2.5 2.4 4.9 5A226 226 0 0 0 379 1066l3.7 3 2.3 2-.7-1.9q-1.8-5-3.3-10.1l-.6-2a159 159 0 0 1 1.6-83h2l.4 1.6a107 107 0 0 0 9.6 22.5l2.7 5.2a224 224 0 0 0 91.1 91.5l7.2 4.2-.8-1.6A142 142 0 0 1 479 1033c2.8 2.5 4 5 5.6 8.4A115 115 0 0 0 506 1070l1.7 1.8c20.3 21.5 49.9 34.9 76.1 47.5 29.4 14.3 52.1 31.5 65.6 62 .6 1.7.6 1.7.6 4.7h2l.4-1.4A85 85 0 0 1 671 1152l2.2-2.4c14-15 33-24.3 51-33.3C758 1100 758 1100 788 1078l3-2.6a126 126 0 0 0 31-42.4h1c-.8 23-3.7 44.3-14 65a229 229 0 0 0 49-34l3.8-3.1A190 190 0 0 0 890 1029l1.2-1.6A215 215 0 0 0 919 974c2.2 2.2 2.4 3.1 3 6.1l.5 2.5.6 2.6.5 2.5q2.4 10.8 2.6 21.7v13.1c0 11.2-.9 22-4.1 32.8l-.6 1.7-4.5 14a140 140 0 0 0 15.4-12.8l8.4-7.5q6.9-6 13.3-12.6l2.3-2.3A260 260 0 0 0 970 1021l2.6-3a347 347 0 0 0 31.4-42l1.5-2.3q10.6-16.3 19.5-33.7c4.1 1.6 6.4 4.4 9.3 7.6l1.3 1.6 3.4 3.8c-9.4 24.8-25 47.2-41 68l-1.2 1.5q-7 9-14.5 17.1l-4.5 5.1q-6.1 6.9-12.5 13.2l-2.5 2.4q-7.1 7.3-15.2 13.6l-7 6A369 369 0 0 1 874 1125l-2-1 1.4-1.6a103 103 0 0 0 11.3-16.3l1-2A207 207 0 0 0 899 1074l.7-1.8A202 202 0 0 0 911 1029l-1.4 2.6c-33.4 60.4-96.7 87.5-155.5 117.4a346 346 0 0 0-57.1 34c2-4.6 5.2-7.6 8.8-11l2-2a185 185 0 0 1 20.2-17l2.1-1.6 19.7-14q11.4-8 21.8-17.2l4-3.3c12.1-9.8 20.2-24.4 27.4-37.9l-2.1 2.1a286 286 0 0 1-59.6 45.2 380 380 0 0 0-23 14.5l-2.7 1.8c-13.1 9-25.4 19.2-35.6 31.4l-3.5 3.9A136 136 0 0 0 652 1221c-2.5-1.2-2.5-1.9-3.4-4.4l-.9-2-.8-2.4c-16.4-41-54-67-90.5-88.7A268 268 0 0 1 515 1094l-2.6-2.3A222 222 0 0 1 501 1081c15.1 28.9 36.7 46.2 63 64.8a287 287 0 0 1 40 34.2c-3.7 0-4.4-.9-7.2-3.2-16.3-12.3-35.8-21-53.9-30.3l-14.2-7.4-15.3-8A410 410 0 0 1 446 1092l-1.7-1.3c-14-10.5-26-21.6-36.3-35.7l-1.2-1.7q-8.8-12-15.8-25.3c5.6 30.1 14.6 71 37.3 93.2 1.7 1.8 1.7 1.8 1.7 3.8q-6.7-2.7-12.9-6.5l-2.2-1.3a426 426 0 0 1-71.2-53.7l-7-6.2q-4.8-4.3-9-9.3-2.6-3-5.6-5.8-6.3-6.5-11.9-13.6l-3.9-5q-9.2-11.4-17.3-23.6l-1.5-2.2a346 346 0 0 1-18.4-31.9l-.8-1.5-2.2-4.5-1.3-2.6c-1-2.6-.9-3.7.2-6.3 1-1.5 1-1.5 2.4-2.8l1.5-1.5 1.5-1.4 1.6-1.6c3.7-3.7 3.7-3.7 6-3.7"/><path fill="#c8965c" fill-rule="nonzero" d="M891 783c6.5-.3 12.2.7 18.6 2.2l6.1 1.4 3.2.7 9 2A410 410 0 0 1 966 799l2 .6a898 898 0 0 1 124.9 48.9l1.7.8q12.4 6 24.4 12.7c-.5 7.3-1.8 14-3.7 21l-.9 3.1-2.4 8.9-.6 2.3c-6 22.3-15.1 43.1-25.4 63.7-1.2-3.6-.7-4.5.7-8l1.1-3 .6-1.8c4.3-11.7 7.1-23.5 9.2-35.8l.3-2.3a109 109 0 0 0 2.1-23.1l-.6 1.9-.8 2.7-.9 3-2 6.3-3.8 12.8a321 321 0 0 1-16.7 43.2l-1.3 3q-3.6 7.8-7.9 15.1a90 90 0 0 1-10.3-11.8l-1.4-1.8c-5-6.9-3.4-13.3-2.2-21.4l.8-5.6q1.4-9.6 1.1-19.4l-.6 1.7-2.6 7.8-1 2.7q-2.7 8.2-6.8 15.8a122 122 0 0 1-8.8-9.6q-10.2-11.8-21.3-22.8l-1.6-1.5q-9-9.1-18.9-17.2l-7.4-6.2a347 347 0 0 0-28-21.7l-1.8-1.3L944 855l-1.8-1.2A442 442 0 0 0 886 822l.4-1.9q2-12 2.9-24.4l.2-2.8.2-2.5q.5-3.8 1.3-7.4"/><path fill="#ead3a9" fill-rule="nonzero" d="M663.3 977.4c47 14.4 47 14.4 95.7 19.7h13.9q12 .2 24.1-1.1c-2.7 11.8-12 21.3-20 30l-1.3 1.4A88 88 0 0 1 734 1054l-2-1 1.4-1.4 6.3-6.2 2.2-2.1c4.2-4.2 7.9-8.3 11.1-13.3l-1.2.8a185 185 0 0 1-32.8 17.7c-5.3 2.2-10.9 3.3-16.4 4.6l-5.8 1.4a174 174 0 0 1-34.8 5.5l-3 .1c-21 .6-41-1.5-61.2-7.6l-5.7-1.6c-15-4.2-28-11.5-41.1-19.9 0 2.2 2.6 4.3 4 6l1.2 1.5q6 7.1 12.8 13.5l3 3a88 88 0 0 1-37-20l-2.7-2.3c-4.6-4-4.6-4-6.3-5.7v-2h-2q-7.6-8.7-14-18.4l-1.2-1.8-1-1.7-1-1.5q-1.3-2.7-1.8-5.6l1.4.2A223 223 0 0 0 584 991l1.8-.4q10.2-2.3 20.3-4.9l14.4-3.3q11-2.4 22-5.9a31 31 0 0 1 20.8.9"/><path fill="#c8965c" fill-rule="nonzero" d="M929.2 732.8h1.8c38.8 0 76.6 3.5 115 8.2l2.5.3c24.7 3 49.5 7 73.5 13.7 3.5 29.8 3.8 61.2 0 91q-6-2.3-11.7-5.5l-4-2.2-2-1A729 729 0 0 0 1062 816l-2.9-1.3a761 761 0 0 0-91.2-34.1l-5.3-1.7q-13.2-4-26.9-6.8l-4.7-1q-19.5-4.4-39-8.1v-28h-12v-1q24.6-1.4 49.2-1.2"/><path fill="#ead3a9" fill-rule="nonzero" d="M1050 86c18.4 17.3 26.4 51 27.3 75.3.5 16.2.5 32-4.3 47.7l-1 3.8a120 120 0 0 1-24 43.2l-3 4 3-2c-5.5 12.7-18.9 18.2-30.8 23.2a27 27 0 0 1-12.2 1.8l-1.4-4.2-.8-2.4c-5.6-17.3-2.8-40.6 3.2-57.4l.9-2.4c5-13.6 11.8-26.4 21.1-37.6-16.2 3.4-32.2 7.7-44 20l-3 3q.9-13.2 4-26l.5-2.2A172 172 0 0 1 1015 107l2-2.8c7.2-9.2 20-24.2 33-18.2M381.8 284.3c29.8 15 47.8 43.1 58.2 74l2 6.7.8 2.8c2.6 9.8 2.8 19.4 2.7 29.4v2.7c-.1 22.6-1.8 46.9-18.3 64a131 131 0 0 1-49.1 29l-1.9.5c-14 4.7-33.3 5-47.2-.4l-4-3 3.4-.3c23.2-2.2 43.4-8.7 61.4-24q3-2.2 6.2-3.7c1.5-2.3 1.5-2.3 2-5l-2.6.8-3.5 1.1-1.7.6a68 68 0 0 1-48.7-3c-16.3-9.5-24.3-23.4-29.3-41.2-3-14.7-1.6-30.8-.3-45.7l.2-2.8.3-2.6.2-2.3c.4-1.9.4-1.9 2.4-3.9 2-.2 2-.2 4.1-.1h2.2l1.7.1v2.2c-.3 24.9.8 47 19 65.9 12 11 24.8 10.4 40.2 10 4.2-.2 7.8-1.2 11.8-2.4 4.1-1 8-1 12.3-1.1l2.2-.1c8.3 0 14 3.6 20 9.1l2.5 2.4c2 2 2 2 3 4a131 131 0 0 0-10-60l-.9-2a100 100 0 0 0-57.8-54c-8.4-3-16.4-3.2-25.1-3.2h-3.5c-6.5 0-12.4.5-18.7 2.2l-9 2c1.5-14.1 10-29 21-38 15-12 33.2-18.8 51.8-10.7M264 86c4.1 2.1 7.5 5 11 8l1.4 1.2c26.9 23.4 40.8 66.3 44.6 100.8v5l-1.2-1a74 74 0 0 0-44.8-20l2 2.8c10 14.6 16.8 29.2 22 46.2l.6 2c2 7 1.7 14.3 1.7 21.6v6.8c.1 8.4-.5 15.6-3.3 23.6-13 1.2-26.7-6.5-36.4-14.6q-7.3-6.7-13.6-14.4l1-2 11 10q-3.7-4.6-7.7-9a112 112 0 0 1-22.3-42l-1-2.7c-10.3-33-4-72.8 11-103.3l.8-1.6C246 92.8 251 83.6 264 86"/><path fill="#784f1c" fill-rule="nonzero" d="M660 292a114 114 0 0 1 61 49q-5.8-12.4-12.7-24l-1-1.9q-4-6.2-8.3-12.1c3.6 0 4 .6 6.6 3l2.1 2 2.2 2.2 2.3 2.2c33.2 32 52.9 71.5 69.2 114l1 2.3 4.5 13.5q3.4 11 7.4 21.9l3 8.2.7 2 3.8 11.1c9.4 28.5 22.3 57 41.8 79.8A261 261 0 0 1 873 609l1 2c7.5 13.5 11.6 28 15.3 43l.8 3.1c2.5 10.7 3 21 3 32v6c0 6.4 0 12.6-1.1 18.9-2.5-2.8-2.5-6.1-2.9-9.7q-1.6-12.2-4.7-24l-.6-2A201 201 0 0 0 850 607l-1.1-1.5a229 229 0 0 0-14.5-17l-7.6-8.5-4-4.3c-8.2-9-15.2-18.3-21.4-28.9l-1.2-2.2a257 257 0 0 1-18.8-42.2l-.8-2.3a519 519 0 0 1-11.7-37c-9.6-34.6-19.8-68.8-38.9-99.5l-4-6.6.6 1.6q3 8.5 4.8 17.1l.7 2.8 4.3 20 .5 2.7.5 2.6.4 2.2c.2 2.2-.1 3.9-.8 6q-6.3-11.3-11.8-23.1a382 382 0 0 0-59.8-90.1 88 88 0 0 1-5.4-6.8"/><path fill="#ead3a9" fill-rule="nonzero" d="M956.1 284.3a74 74 0 0 1 37.2 43.8c.7 2.9.7 2.9-.3 5.9l-2.7-1.4a83 83 0 0 0-82 15.3l-4 3.2c-20.5 17.2-33.1 47.4-36.1 73.7q-1 13.1-1.2 26.2c-12.6-16-10.8-46.8-10-66l.1-2.9c.5-7.5 2-14.3 4.2-21.4l.5-1.7c8.9-28.3 26.3-57 53.3-71.2 13.6-7 26.4-10.3 41-3.5"/><path fill="#784f1c" fill-rule="nonzero" d="M599.2 587.6c13.4 4.8 27.4 9.5 41.8 9.6h2c22 .2 40-2.6 60.9-10q12.4-4.5 25.2-7.8l2.7-.7c15.8-4 34.8-5.5 50.2.3l3 1a60 60 0 0 1 33.2 29.3A51 51 0 0 1 823 632q-3.5-4.5-6-9.6c-8.7-15.3-22.8-23.2-39.3-28-27-7-55.1 5.5-79.8 15.4q-6.9 2.7-14 4.4l-1.8.5c-32.7 7.8-61.8 1.7-92.5-10.4-24.1-9.5-50.3-16.8-75.4-6.6A65 65 0 0 0 481 632c-1.6-4-.5-7.5.6-11.6l.5-2.1A58 58 0 0 1 511 583c28.3-14.7 60-5.6 88.2 4.6"/><path fill="#ead3a9" fill-rule="nonzero" d="m979 358 9 1c3 10.7 3.2 21.6 3.2 32.7l.1 6.2a70 70 0 0 1-7 34.4l-1 2c-7 12.8-18.1 22-32.2 26.2-13.6 3-28 2.7-41.3-1.6-2.8-1-2.8-1-5.8-.9 21.7 20.5 43.6 28.7 73 32-6.9 6.9-18.8 6.5-27.9 6.5-10 0-18.8-1-28.1-4.5l-2-.7c-17.2-6.2-42.3-19.3-51-36.3-.5-3.3-.1-6 1-9a40 40 0 0 1 22.2-14.4c4.8-.3 9.1.7 13.7 1.8 8.2 2.1 16 3 24.5 3.1h3c10.7 0 19.6-3.4 27.6-10.5l1.8-1.6c10.8-10 16-24 17.2-38.4q.4-14 0-28M249 846l.3 2.7c2.6 25 9.6 50 20.8 72.5 1.2 2.5 1.9 4.5 1.9 7.4a25 25 0 0 1-6 8.2l-1.5 1.5-3.5 3.7c-3-1-3-1-4-2.5l-.7-1.9-.9-2.1-.9-2.3-1-2.3A111 111 0 0 1 248 912c-.5 9 .6 17.8 2 26.7l1 8.3.3 2.2c.4 6-2.3 9.8-5.7 14.6l-1.5 2.3-2.9 4.1-3.2 4.8h-2a494 494 0 0 1-25.9-62.1l-1-3.3q-3.8-11.2-6.1-22.6c-.3 7.2.5 14.2 1.6 21.4l.2 1.7c2.3 15.5 5.5 31.9 11.8 46.3.4 1.6.4 1.6-.6 4.6a460 460 0 0 1-29.6-81.6l-.5-1.9-.4-1.7-1.6-5.4c-.8-3-1-5.3-.9-8.4l9.6-5 3.2-1.8 4.7-2.5 2.8-1.5q3.7-1.7 7.7-2.2l.4 3.2c4 26.5 9.7 52.2 20.6 76.8v-1.6c.5-10.9 3.6-81.4 17-81.4m805 1c3 1.5 3.3 4.1 4.4 7.3l1 2.7.8 2.8a210 210 0 0 1 9.4 57.3v3.7l.4 9.2 8-21 .8-2.1c6.9-18.6 9.8-38.5 13.2-57.9 6 1.7 11.4 4.7 16.9 7.6l3 1.6 7.1 3.8c-.5 7.3-1.8 14-3.7 21l-.9 3.1-2.4 8.9-.6 2.3c-6 22.3-15.1 43.1-25.4 63.7-1.2-3.6-.7-4.5.7-8l1.1-3 .6-1.8c4.3-11.7 7.1-23.5 9.2-35.8l.3-2.3a109 109 0 0 0 2.1-23.1l-.6 2-.8 2.6-.9 3-2 6.3-3.8 12.8a321 321 0 0 1-16.7 43.2l-1.3 3q-3.6 7.8-7.9 15.1a90 90 0 0 1-10.3-11.8l-1.4-1.8c-5-6.9-3.4-13.3-2.2-21.4l.8-5.6q1.4-9.6 1.1-19.4l-.6 1.7-2.6 7.8-1 2.7q-2.7 8.2-6.8 15.8-6.3-6.2-12-13c.6-6.2 3.2-11.5 5.6-17.2 8.6-21 15.6-43.1 17.4-65.8"/><path fill="#784f1c" fill-rule="nonzero" d="M783.8 624a32 32 0 0 1 13.2 16q.5 3.4.4 7v1.8c-.2 5-1 8.5-4.4 12.2l-1.1 1.4c-5.6 5.6-14.5 6.8-22 8.6-16 3.7-16 3.7-28 14.6l-2.6 5-1 1.7a30 30 0 0 0-3.3 8.7h-2a66 66 0 0 1-2.8-53.1A46 46 0 0 1 757 623a40 40 0 0 1 26.8 1M554 627a46 46 0 0 1 20 26c3.8 16.6 3 32.9-5 48-2-2-2.6-3-3.7-5.5-4.9-10.5-8.3-16.9-19.6-21.1q-8.4-2.8-17-4.4c-8.3-1.7-15.4-3.6-20.7-10.6-3.9-6-3.8-12.6-3-19.4 3-7.2 9.4-13.6 16.2-17.2 11-3.3 22.9-1 32.8 4.2"/><path fill="#c8965c" fill-rule="nonzero" d="m1134 758 10.9 2.4 3.1.7 3 .7 2.8.6c2.2.6 2.2.6 4.2 1.6a418 418 0 0 1 6.1 70.6v7.8q.1 14.3-1.1 28.6a21 21 0 0 1-8.7-4l-2.5-1.7-1.8-1.3v-3.4l-.3-12.6v-5.5a247 247 0 0 0-13-73l-1-3.2-1-2.9c-.7-2.4-.7-2.4-.7-5.4m-966 0q-1.2 7-3.2 13.8l-1.4 4.5-2.7 8.9c-7.9 26-8.5 52-8.7 78.8l-4.9 3.5-2.7 2C142 871 142 871 140 871a363 363 0 0 1 2-91.2l.3-1.8.7-5.3.4-3c.6-2.7 1-4.5 2.6-6.7 2-1 2-1 4.2-1.5l2.6-.6 2.6-.6 2.7-.7c3.4-.9 6.4-1.6 9.9-1.6"/></svg>